<?xml version="1.0" encoding="utf-8"?>
<!-- Generator: Adobe Illustrator 19.1.0, SVG Export Plug-In . SVG Version: 6.00 Build 0)  -->
<!DOCTYPE svg PUBLIC "-//W3C//DTD SVG 1.1//EN" "http://www.w3.org/Graphics/SVG/1.1/DTD/svg11.dtd">
<svg version="1.1" id="Layer_1" xmlns:sketch="http://www.bohemiancoding.com/sketch/ns"
	 xmlns="http://www.w3.org/2000/svg" xmlns:xlink="http://www.w3.org/1999/xlink" x="0px" y="0px" viewBox="-560 744 49.9 50"
	 style="enable-background:new -560 744 49.9 50;" xml:space="preserve">
<g>
	<g>
		<g>
			<path d="M-535,744c-13.8,0-25,11.3-25,25.1c0,13.8,11.1,24.9,24.9,24.9c13.9,0,25-11.1,25-25C-510,755.3-521.2,744.1-535,744z
				 M-535,791c-12.2,0-22-9.8-22-22s9.8-22,22-22s22,9.8,22,22S-522.8,791-535,791z"/>
			<path d="M-525.2,760.4c-0.1-1-0.1-2-0.3-3.1c-0.1-0.3-0.7-0.7-0.9-0.6c-1.1,0.3-2.2,0.8-3.3,1.2c-0.5,0.2-1.1,0.3-1.6,0.3
				c-2,0.1-3.9,0.1-5.8,0.1c-0.5,0-1-0.1-1.5-0.3c-1-0.4-1.9-1-2.9-1.3c-0.8-0.3-1.5,0-1.6,1c-0.1,0.9,0,1.8-0.1,2.6
				c0,0.5-0.1,1-0.3,1.4c-1.6,2.3-1.7,6-0.2,8.3c1.1,1.7,2.9,2.2,4.8,2.6c0.5,0.1,1.1,0.2,1.6,0.3c-0.5,0.7-0.9,1.6-1.5,2.1
				c-0.9,0.7-2.8,0.4-3.7-0.5c-0.5-0.5-0.8-1-1.3-1.6c-0.6-0.7-1.4-1.1-2.6-0.7c0.4,0.3,0.7,0.6,0.9,0.8c0.4,0.5,1,1,1.2,1.6
				c1,2.2,2.6,3.1,5,2.8c0.1,0,0.3,0,0.5,0c0,1.3,0,2.7,0,3.9h9.1c0-1.2,0-2.4,0-3.7c0-1.6,0.1-3.3-1.6-4.6c1-0.2,1.7-0.3,2.4-0.5
				c3.7-1,5.4-3.1,5.2-6.9c-0.1-1.4-0.4-2.7-1.2-3.9C-525.2,761.4-525.2,760.9-525.2,760.4z"/>
		</g>
	</g>
</g>
</svg>
