<?xml version="1.0" encoding="utf-8"?>
<!-- Generator: Adobe Illustrator 19.2.0, SVG Export Plug-In . SVG Version: 6.00 Build 0)  -->
<!DOCTYPE svg PUBLIC "-//W3C//DTD SVG 1.1//EN" "http://www.w3.org/Graphics/SVG/1.1/DTD/svg11.dtd">
<svg version="1.1" id="view" xmlns="http://www.w3.org/2000/svg" xmlns:xlink="http://www.w3.org/1999/xlink" x="0px" y="0px"
	 viewBox="0 0 110.1 109.9" style="enable-background:new 0 0 110.1 109.9;" xml:space="preserve">
<style type="text/css">
	.st0{opacity:0.5;fill:#666666;}
	.st1{fill:#1B9E77;}
</style>
<path class="st0" d="M104.4,79.6c-26-2.2-47.6,4.5-64.9,20.3c17.3-15.8,36-28.5,56.2-38.3L104.4,79.6z"/>
<path class="st0" d="M61.6,14.4c9.8,20.2,22.7,38.9,38.5,56.2C84.2,53.3,77.4,31.6,79.6,5.6L61.6,14.4z"/>
<path class="st0" d="M30.5,104.3c2.1-26-4.7-47.6-20.5-64.8c15.8,17.2,28.7,35.9,38.5,56L30.5,104.3z"/>
<path class="st0" d="M14.4,48.4C34.6,38.6,53.3,25.8,70.6,10C53.3,25.8,31.6,32.6,5.6,30.4L14.4,48.4z"/>
<path class="st0" d="M64.5,58.3c-17.8,10.6-26.1,24.5-25,41.6c-1.1-17.1,0.9-33.2,6.1-48.1L64.5,58.3z"/>
<path class="st0" d="M51.8,64.5c15,5.2,31.1,7.2,48.3,6.1c-17.2,1.1-31.1-7.2-41.8-25L51.8,64.5z"/>
<path class="st0" d="M64.5,58.3c5.2-15,7.2-31.1,6.1-48.3c1.1,17.2-7.2,31.1-25,41.7L64.5,58.3z"/>
<path class="st0" d="M51.8,64.5C41.1,46.7,27.2,38.3,10,39.4c17.2-1.1,33.3,0.9,48.3,6.1L51.8,64.5z"/>
<circle class="st1" cx="39.5" cy="99.9" r="10"/>
<circle class="st1" cx="100.1" cy="70.5" r="10"/>
<circle class="st1" cx="70.6" cy="10" r="10"/>
<circle class="st1" cx="10" cy="39.4" r="10"/>
<circle class="st1" cx="55.1" cy="55" r="10"/>
</svg>
