<?xml version="1.0" encoding="utf-8"?>
<!-- Generator: Adobe Illustrator 20.1.0, SVG Export Plug-In . SVG Version: 6.00 Build 0)  -->
<svg version="1.1" id="Layer_1" xmlns="http://www.w3.org/2000/svg" xmlns:xlink="http://www.w3.org/1999/xlink" x="0px" y="0px"
	 viewBox="0 0 512 512" style="enable-background:new 0 0 512 512;" xml:space="preserve">
<style type="text/css">
	.st0{fill:#FFFFFF;}
</style>
<g>
	<path d="M56.4,255.9c0-78.8,0-157.7,0-236.5c0-11.1,2.2-13.3,13.3-13.3c88.4,0,176.9,0,265.3-0.1c5.5,0,9.5,1.7,13.4,5.6
		c34.1,34.2,68.3,68.2,102.7,102.2c3.2,3.2,4.5,6.5,4.5,11c-0.1,123.2-0.1,246.3-0.1,369.5c0,8.9-2.8,11.7-11.6,11.7
		c-125.1,0-250.3,0-375.4,0c-9.5,0-12-2.7-12-12.4C56.4,414.4,56.4,335.2,56.4,255.9z M437.2,488.1c0-119,0-237.5,0-356.6
		c-2.2,0-3.9,0-5.7,0c-30,0-60,0-90,0c-8.9,0-11.6-2.8-11.6-11.7c0-30,0-60,0-90c0-1.9,0-3.8,0-5.6c-85.5,0-170.3,0-255.1,0
		c0,154.8,0,309.3,0,463.9C195.7,488.1,316.2,488.1,437.2,488.1z M422.9,112.9c-25-25.1-50-50.1-75-75.1c0,24.7,0,49.8,0,75.1
		C373.2,112.9,398.1,112.9,422.9,112.9z"/>
	<path class="st0" d="M437.2,488.1c-121,0-241.5,0-362.5,0c0-154.7,0-309.2,0-463.9c84.8,0,169.5,0,255.1,0c0,1.8,0,3.7,0,5.6
		c0,30,0,60,0,90c0,8.9,2.7,11.7,11.6,11.7c30,0,60,0,90,0c1.8,0,3.5,0,5.7,0C437.2,250.6,437.2,369.1,437.2,488.1z M255.9,358.2
		c29.8,0,59.7,0,89.5,0c8.2,0,11.2-2.9,11.2-11c0-49.2,0-98.3,0-147.5c0-8.5-3.4-11.9-11.8-11.9c-59.3,0-118.6,0-177.9,0
		c-7.9,0-10.9,2.9-10.9,10.7c0,49.5,0,99.1,0,148.6c0,8.5,2.8,11.2,11.5,11.2C197,358.2,226.4,358.2,255.9,358.2z"/>
	<path class="st0" d="M422.9,112.9c-24.8,0-49.7,0-75,0c0-25.3,0-50.3,0-75.1C372.9,62.8,397.9,87.8,422.9,112.9z"/>
	<path d="M255.9,358.2c-29.5,0-58.9,0-88.4,0c-8.7,0-11.5-2.7-11.5-11.2c0-49.5,0-99.1,0-148.6c0-7.8,3-10.7,10.9-10.7
		c59.3,0,118.6,0,177.9,0c8.4,0,11.8,3.4,11.8,11.9c0,49.2,0,98.3,0,147.5c0,8.1-3,11-11.2,11C315.5,358.2,285.7,358.2,255.9,358.2z
		 M173.6,205.7c0,34.6,0,68.6,0,104.1c8.2-8.3,15.5-15.8,22.8-23.1c9.6-9.7,12.2-9.7,21.6-0.1c4.1,4.2,8.1,8.6,13.4,14.2
		c1.8-2.7,2.7-4.6,4.1-5.9c17-17.2,34-34.4,51.1-51.6c5.5-5.5,10.3-5.5,15.8,0c10.6,10.6,21.2,21.2,31.8,31.8c0.9,0.9,2,1.7,3.6,2.9
		c0-24.5,0-48.2,0-72.2C283.1,205.7,228.6,205.7,173.6,205.7z M173.5,340.2c55.2,0,109.7,0,164.5,0c0-12.2,0-24.1,0-35.2
		c-14.7-14.7-29.1-29.1-43.7-43.8c-1,0.9-2.3,2.1-3.5,3.4c-17.1,17.1-34.2,34.3-51.4,51.4c-5.9,5.8-10.4,5.8-16.3-0.1
		c-5-5.1-9.9-10.4-14.6-15.3c-12.1,12-23.5,23.3-35,34.8C173.5,336.8,173.5,338.4,173.5,340.2z"/>
	<path class="st0" d="M173.6,205.7c54.9,0,109.4,0,164.3,0c0,24,0,47.7,0,72.2c-1.5-1.2-2.6-2-3.6-2.9
		c-10.6-10.6-21.2-21.2-31.8-31.8c-5.5-5.5-10.4-5.5-15.8,0c-17.1,17.2-34.1,34.4-51.1,51.6c-1.4,1.4-2.3,3.3-4.1,5.9
		c-5.3-5.6-9.3-10-13.4-14.2c-9.4-9.6-12-9.5-21.6,0.1c-7.3,7.4-14.6,14.8-22.8,23.1C173.6,274.3,173.6,240.3,173.6,205.7z
		 M218.2,218.9c-14.3-0.1-26,11.3-26.2,25.5c-0.2,14.4,11.4,26.4,25.8,26.6c14.4,0.2,26.3-11.4,26.4-26
		C244.3,230.4,233,219,218.2,218.9z"/>
	<path class="st0" d="M173.5,340.2c0-1.9,0-3.5,0-4.8c11.5-11.5,22.9-22.8,35-34.8c4.7,4.9,9.5,10.2,14.6,15.3
		c5.8,5.9,10.4,6,16.3,0.1c17.2-17.1,34.3-34.3,51.4-51.4c1.3-1.3,2.6-2.4,3.5-3.4c14.6,14.6,29,29,43.7,43.8c0,11.1,0,23,0,35.2
		C283.2,340.2,228.7,340.2,173.5,340.2z"/>
	<path d="M218.2,218.9c14.7,0.1,26,11.5,25.9,26.2c-0.1,14.5-11.9,26.2-26.4,26c-14.4-0.2-26-12.2-25.8-26.6
		C192.2,230.3,204,218.8,218.2,218.9z M226.5,245c0.1-4.3-3.9-8.3-8.2-8.4c-4.4-0.1-8.3,3.8-8.3,8.2c-0.1,4.6,3.5,8.3,8.1,8.3
		C222.5,253.2,226.5,249.4,226.5,245z"/>
	<path class="st0" d="M226.5,245c-0.1,4.3-4,8.1-8.5,8.1c-4.6-0.1-8.2-3.8-8.1-8.3c0.1-4.4,4-8.3,8.3-8.2
		C222.6,236.7,226.6,240.8,226.5,245z"/>
</g>
</svg>
