<?xml version="1.0" encoding="UTF-8" standalone="no"?>
<!-- Created with Inkscape (http://www.inkscape.org/) -->

<svg
   xmlns:dc="http://purl.org/dc/elements/1.1/"
   xmlns:cc="http://creativecommons.org/ns#"
   xmlns:rdf="http://www.w3.org/1999/02/22-rdf-syntax-ns#"
   xmlns:svg="http://www.w3.org/2000/svg"
   xmlns="http://www.w3.org/2000/svg"
   xmlns:sodipodi="http://sodipodi.sourceforge.net/DTD/sodipodi-0.dtd"
   xmlns:inkscape="http://www.inkscape.org/namespaces/inkscape"
   width="500"
   height="500"
   viewBox="0 0 500 500"
   version="1.1"
   id="svg8"
   inkscape:version="0.92.4 (5da689c313, 2019-01-14)"
   sodipodi:docname="home.svg">
  <defs
     id="defs2" />
  <sodipodi:namedview
     id="base"
     pagecolor="#ffffff"
     bordercolor="#666666"
     borderopacity="1.0"
     inkscape:pageopacity="0.0"
     inkscape:pageshadow="2"
     inkscape:zoom="2.1475095"
     inkscape:cx="367.52999"
     inkscape:cy="190.0725"
     inkscape:document-units="px"
     inkscape:current-layer="layer1"
     showgrid="true"
     units="px"
     inkscape:window-width="3000"
     inkscape:window-height="1890"
     inkscape:window-x="-12"
     inkscape:window-y="-12"
     inkscape:window-maximized="1"
     inkscape:pagecheckerboard="false"
     inkscape:snap-grids="false">
    <inkscape:grid
       type="xygrid"
       id="grid1358"
       spacingx="20"
       spacingy="20" />
  </sodipodi:namedview>
  <metadata
     id="metadata5">
    <rdf:RDF>
      <cc:Work
         rdf:about="">
        <dc:format>image/svg+xml</dc:format>
        <dc:type
           rdf:resource="http://purl.org/dc/dcmitype/StillImage" />
        <dc:title></dc:title>
      </cc:Work>
    </rdf:RDF>
  </metadata>
  <g
     inkscape:label="Layer 1"
     inkscape:groupmode="layer"
     id="layer1"
     transform="translate(0,-591.25001)">
    <path
       style="fill:#000000;stroke-width:1"
       d="M 248.88672 27.384766 C 246.42326 27.467048 243.96616 28.006981 241.32617 28.939453 C 234.58179 31.321683 232.76355 32.617827 212.7793 49.310547 C 203.60904 56.970337 175.58651 80.3291 150.50781 101.21875 C 70.468197 167.88896 22.318812 208.74686 7.7382812 222.36719 C 0.25566456 229.35709 -1.9639119 238.47074 1.796875 246.75977 C 6.0073521 256.03991 14.92523 266.15097 22.308594 270.01562 C 27.05668 272.50091 35.275201 272.73058 39.835938 270.50586 C 43.014091 268.95555 51.449795 262.61006 68.994141 248.37109 C 69.043224 252.53939 69.085793 256.18246 69.138672 261.02734 C 69.515849 295.58001 69.850761 446.88656 69.882812 450.59766 L 69.941406 457.3457 L 76.482422 463.73438 C 80.079855 467.24768 84.109679 470.68425 85.4375 471.37305 C 87.493466 472.43955 111.94395 472.62695 250.02148 472.62695 L 412.19336 472.62695 L 417.03516 469.01172 C 419.70036 467.02392 423.77286 463.59899 426.08594 461.40039 L 430.29102 457.40234 L 430.39258 435.13281 C 430.43968 424.79426 430.66711 302.05796 430.93164 248.25977 C 446.38215 260.85512 455.20079 267.72904 457.99609 269.36719 C 464.07005 272.92682 470.91245 273.30923 476.94727 270.42578 C 483.09259 267.48947 488.74267 262.12684 494.04492 254.19922 C 500.86837 243.99739 501.53403 239.41416 497.53711 230.12305 C 495.03915 224.31648 485.24561 214.90967 456.91797 191.11328 C 445.43923 181.47075 435.33804 172.79293 434.47266 171.82812 C 433.06099 170.25416 432.81421 166.76029 432.06836 137.85156 C 431.61114 120.13019 430.97846 97.663128 430.66211 87.923828 L 430.08594 70.216797 L 425.18555 65.185547 C 422.08217 62.000177 418.30503 59.247624 414.88477 57.677734 C 401.72502 51.637334 378.91973 56.579434 374.2168 66.490234 C 371.84705 71.484024 370.99328 77.768263 369.98438 97.664062 C 369.4658 107.89033 368.89742 116.40247 368.7207 116.58203 C 368.54406 116.7615 349.55404 101.19676 326.52148 81.992188 C 303.489 62.787608 280.90962 44.204916 276.34375 40.697266 C 263.7252 31.003291 256.27708 27.137919 248.88672 27.384766 z M 249.97656 99.876953 C 252.32568 99.876953 270.584 114.23778 304.12305 142.46484 C 329.98392 164.22984 352.10567 182.794 370.9707 198.56641 L 370.9707 208.92578 C 370.9707 228.99547 370.70813 391.092 370.39062 398.03125 L 369.8125 410.64844 L 249.98047 410.64844 C 184.0724 410.64844 130.08725 410.54913 130.01367 410.42773 C 129.94017 410.30603 129.62871 268.89053 129.32227 242.83789 C 129.04332 219.12548 128.9082 206.52808 128.32812 199.2793 C 144.3707 185.88258 162.49504 170.70858 184.5957 152.16211 C 234.62641 110.17722 237.51981 107.78618 243.14453 103.75977 C 246.12812 101.62395 249.20176 99.876953 249.97656 99.876953 z "
       transform="translate(0,591.25001)"
       id="path849" />
  </g>
</svg>
