<?xml version="1.0" encoding="utf-8"?>
<!-- Generator: Adobe Illustrator 20.1.0, SVG Export Plug-In . SVG Version: 6.00 Build 0)  -->
<svg version="1.1" id="Layer_1" xmlns:sketch="http://www.bohemiancoding.com/sketch/ns"
	 xmlns="http://www.w3.org/2000/svg" xmlns:xlink="http://www.w3.org/1999/xlink" x="0px" y="0px" viewBox="0 0 64 64"
	 style="enable-background:new 0 0 64 64;" xml:space="preserve">
<style type="text/css">
	.st0{fill:#FFFFFF;}
</style>
<g>
	<path class="st0" d="M18.4,61.6c1-1.8,1.8-3.6,3-5.8c-3.2,0-5.8,0-8.6,0c-5,0-7.6-2.6-7.6-7.6c0-12.8,0-25.8,0-38.6
		c0-5,2.6-7.6,7.4-7.6c13,0,26,0,39,0c5,0,7.4,2.4,7.4,7.4c0,13,0,26.2,0,39.2c0,4.8-2.4,7.4-7.4,7.4c-6.2,0-12.2-0.2-18.4,0
		c-2,0-4,0.6-5.8,1.4c-3,1.4-5.8,3-8.6,4.6C18.5,61.8,18.5,61.8,18.4,61.6z M49.7,13.8c-11.8,0-23.4,0-35,0c0,1.6,0,3.2,0,4.6
		c11.8,0,23.4,0,35,0C49.7,17,49.7,15.4,49.7,13.8z M49.7,26.2c-11.8,0-23.4,0-35,0c0,1.6,0,3.2,0,4.6c11.8,0,23.4,0,35,0
		C49.7,29.2,49.7,27.8,49.7,26.2z M14.7,42.8c11.8,0,23.4,0,35,0c0-1.6,0-3,0-4.6c-11.8,0-23.4,0-35,0
		C14.7,39.8,14.7,41.2,14.7,42.8z"/>
</g>
</svg>
