<?xml version="1.0" encoding="utf-8"?>
<!-- Generator: Adobe Illustrator 20.1.0, SVG Export Plug-In . SVG Version: 6.00 Build 0)  -->
<svg version="1.1" id="Layer_1" xmlns:sketch="http://www.bohemiancoding.com/sketch/ns"
	 xmlns="http://www.w3.org/2000/svg" xmlns:xlink="http://www.w3.org/1999/xlink" x="0px" y="0px" viewBox="0 0 64 64"
	 style="enable-background:new 0 0 64 64;" xml:space="preserve">
<style type="text/css">
	.st0{fill:#FFFFFF;}
</style>
<g>
	<path class="st0" d="M62,12c0,2.8-2.2,5-5,5H7c-2.8,0-5-2.2-5-5l0,0c0-2.8,2.2-5,5-5h50C59.8,7,62,9.2,62,12L62,12z"/>
	<path class="st0" d="M62,32c0,2.8-2.2,5-5,5H7c-2.8,0-5-2.2-5-5l0,0c0-2.8,2.2-5,5-5h50C59.8,27.2,62,29.4,62,32L62,32z"/>
	<path class="st0" d="M62,52c0,2.8-2.2,5-5,5H7c-2.8,0-5-2.2-5-5l0,0c0-2.8,2.2-5,5-5h50C59.8,47.2,62,49.4,62,52L62,52z"/>
</g>
</svg>
