<?xml version="1.0" encoding="utf-8"?>
<!-- Generator: Adobe Illustrator 20.1.0, SVG Export Plug-In . SVG Version: 6.00 Build 0)  -->
<svg version="1.1" id="Layer_1" xmlns:sketch="http://www.bohemiancoding.com/sketch/ns"
	 xmlns="http://www.w3.org/2000/svg" xmlns:xlink="http://www.w3.org/1999/xlink" x="0px" y="0px" viewBox="0 0 64 64"
	 style="enable-background:new 0 0 64 64;" xml:space="preserve">
<style type="text/css">
	.st0{fill:#FFFFFF;}
</style>
<g id="History">
	<g>
		<path class="st0" d="M45.8,30.6c0,0.4-0.2,0.8-0.2,1.4c-0.2,2.4-1,4.6-2,6.6s-1.8,3.8-2.8,5.8C39.6,47,39,49.8,39,52.8
			c0,2-0.4,3.8-1.4,5.6c-1.6,2.4-3.8,3.8-6.8,3.6c-1.2,0-2.6-0.2-3.8-0.8c-1.8-0.8-3-2-3.6-4c-0.6-2.2-0.8-4.2-0.2-6.4
			c0.4-1.4,1-2.4,2-3.6c1-1.2,2-2.4,3-3.4c1-1.4,1.8-2.8,1.8-4.6c0.2-2.6-0.6-5-2.4-7c-1.2-1.2-2.6-2.4-3.8-3.6
			c-1.2-1-2.2-2.2-2.8-3.8c-0.6-1.8-0.8-3.6,0-5.4c0.6-1.6,1.8-2.6,3.4-3c1.2-0.4,2.4-0.6,3.4-0.4c3.6,0,7,0.8,10.2,2.2
			c2.4,1.2,4.6,2.6,6,5c0.8,1.4,1.4,3,1.6,4.6c0,0.2,0,0.4,0.2,0.6C45.8,29,45.8,29.8,45.8,30.6z"/>
		<path class="st0" d="M18.2,6.9c0-1.2,0.2-2.4,1-3.4c1-1.6,3-2,4.4-0.8c1,0.8,1.6,1.8,2,3c0.6,1.8,0.6,3.4,0,5.2
			c-0.2,0.6-0.6,1.2-1.2,1.8c-1.2,0.8-2.6,0.8-3.6-0.2c-1.2-1-1.8-2.4-2.2-4C18.2,8.1,18.2,7.5,18.2,6.9z"/>
		<path class="st0" d="M33,8.9c0,0.8-0.2,1.8-0.8,2.6c-0.8,1.2-2.2,1.4-3.4,0.4c-1.2-1.2-1.6-2.6-1.4-4.2c0-0.6,0.2-1.4,0.6-2
			c0.8-1.2,2.2-1.4,3.4-0.4C32.6,6.1,33,7.3,33,8.9z"/>
		<path class="st0" d="M38.8,10.1c0,0.8-0.2,1.8-0.8,2.4c-0.8,1-2,1-2.8,0c-1-1.4-1-3.8,0-5c0.8-1,2-1,2.8,0
			C38.6,8.3,38.8,9.1,38.8,10.1z"/>
		<path class="st0" d="M42.8,11.9c0,1-0.2,1.8-0.8,2.4c-1,1-2.2,0.8-2.6-0.4c-0.4-1.2-0.2-2.4,0.6-3.4c1-1,2.2-0.8,2.6,0.6
			C42.6,11.5,42.8,11.7,42.8,11.9z"/>
		<path class="st0" d="M45.4,15.9c0,0.6-0.2,1.2-0.6,1.6c-0.4,0.6-1.2,0.6-1.6,0c-0.8-0.8-0.8-2.6,0-3.4c0.6-0.6,1.2-0.6,1.8,0
			C45.2,14.7,45.4,15.3,45.4,15.9z"/>
	</g>
</g>
</svg>
