<?xml version="1.0" encoding="utf-8"?>
<!-- Generator: Adobe Illustrator 20.1.0, SVG Export Plug-In . SVG Version: 6.00 Build 0)  -->
<svg version="1.1" id="Layer_1" xmlns:sketch="http://www.bohemiancoding.com/sketch/ns"
	 xmlns="http://www.w3.org/2000/svg" xmlns:xlink="http://www.w3.org/1999/xlink" x="0px" y="0px" viewBox="0 0 64 64"
	 style="enable-background:new 0 0 64 64;" xml:space="preserve">
<style type="text/css">
	.st0{fill:#FFFFFF;}
</style>
<path class="st0" d="M37.9,34c8.8,3.4,16.3,7.4,20.5,15.5c-5.4,6.4-12.2,10.6-20.5,12c-12,2-22.5-1.4-31.3-10
	c-1.2-1.2-1.2-2-0.2-3.2c3.2-4.8,7.4-8.6,12.6-11c2-1,3.8-1.8,6-2.8c-1.6-1.6-3.2-3.2-4.6-4.6c-6.2-6.2-6.4-15.9-0.6-22.5
	c5.6-6.2,15.3-7,22.1-1.8c7.2,5.4,8.4,16.7,2.2,23.3C42.1,30.6,40.1,32,37.9,34z"/>
</svg>
