<?xml version="1.0" encoding="utf-8"?>
<!-- Generator: Adobe Illustrator 20.1.0, SVG Export Plug-In . SVG Version: 6.00 Build 0)  -->
<svg version="1.1" id="Layer_1" xmlns:sketch="http://www.bohemiancoding.com/sketch/ns"
	 xmlns="http://www.w3.org/2000/svg" xmlns:xlink="http://www.w3.org/1999/xlink" x="0px" y="0px" viewBox="0 0 64 64"
	 style="enable-background:new 0 0 64 64;" xml:space="preserve">
<style type="text/css">
	.st0{fill:#FFFFFF;}
</style>
<g>
	<path class="st0" d="M32.1,45.6c-2.2,0-4.4,0-6.6,0c-1.4,0-2.4-0.6-2.8-1.8c-0.4-1.4-0.8-2.8-1-4.2c-0.4-3.2-1.6-6-3.4-8.7
		c-0.8-1.4-1.6-2.6-2.6-4c-3.8-6-3.4-11.7,0.6-17.3C24.3-1.7,43-0.3,49,12.2c2.2,4.6,2.4,9.3-0.4,13.7c-1.2,1.8-2.2,3.6-3.4,5.4
		c-1.8,2.8-2.8,6-3.2,9.1c0,0.8-0.2,1.6-0.6,2.4c-0.8,2-1.4,2.6-3.4,2.4C36.3,45.6,34.1,45.6,32.1,45.6z M19,17.4
		c0,1.2,0.8,2.4,2,2.4c1.4,0.2,2.4-0.6,2.6-2c0.2-2.6,1.2-4.6,3.8-5.6c1-0.4,1.4-1.2,1.2-2.4c-0.4-1.2-1.2-1.6-2.4-1.6
		c-0.6,0-1.2,0.2-1.6,0.4C20.8,10.6,19.4,13.8,19,17.4z"/>
	<path class="st0" d="M32.1,52.2c-2,0-3.8,0-5.8,0c-1.6,0-2.8-1-2.8-2.2c0-1.2,1.2-2.2,2.8-2.2c3.8,0,7.6,0,11.3,0
		c1.6,0,2.8,1,2.8,2.2c0,1.2-1,2.2-2.6,2.2C35.9,52.2,34.1,52.2,32.1,52.2z"/>
	<path class="st0" d="M32.1,58.1c-1.6,0-3.4,0-5,0c-0.6,0-1.4,0-1.8-0.4c-0.6-0.4-1.2-1.2-1.2-1.8c0-0.6,0.6-1.2,1.2-1.8
		c0.4-0.2,1-0.4,1.4-0.4c3.6,0,7.2,0,10.9,0c0.4,0,1,0,1.2,0.2c0.6,0.6,1.4,1.2,1.4,1.8c0,0.6-0.8,1.4-1.4,1.8
		c-0.4,0.4-1.2,0.2-1.6,0.2C35.5,58.1,33.7,58.1,32.1,58.1z"/>
	<path class="st0" d="M28.1,60.1c2.8,0,5.4,0,8,0c-0.2,1.2-1,1.8-2,1.8c-1.4,0-2.6,0-4,0C29.1,61.9,28.3,61.3,28.1,60.1z"/>
</g>
</svg>
