<?xml version="1.0" encoding="utf-8"?>
<!-- Generator: Adobe Illustrator 20.1.0, SVG Export Plug-In . SVG Version: 6.00 Build 0)  -->
<svg version="1.1" id="Layer_1" xmlns="http://www.w3.org/2000/svg" xmlns:xlink="http://www.w3.org/1999/xlink" x="0px" y="0px"
	 viewBox="0 0 512 512" style="enable-background:new 0 0 512 512;" xml:space="preserve">
<style type="text/css">
	.st0{fill:#FFFFFF;}
</style>
<g>
	<path class="st0" d="M244,0c8.9,3.8,12.6,10.4,12.1,20.1c-0.5,8.8,0,17.7-0.1,26.5c-0.1,10.9-6.5,17.3-17.5,17.3
		c-55.3,0-110.7,0-166,0c-2.6,0-5.3,0-8.2,0c0,128,0,255.6,0,383.6c127.6,0,255.3,0,383.7,0c0-1.7,0-3.4,0-5.2c0-56,0-112,0-168
		c0-12.2,6.2-18.4,18.4-18.4c8.3,0,16.7,0.4,25-0.1c9.9-0.6,16.7,3,20.6,12.1c0,72.7,0,145.3,0,218c-1.1,2.7-2.1,5.5-3.3,8.1
		c-4.9,9.9-13.4,15.1-23.7,17.9c-152.7,0-305.3,0-458,0c-7.9-2.3-15.4-5.4-20.2-12.5c-2.8-4.2-4.6-9-6.8-13.5C0,332.7,0,179.3,0,26
		c1.9-4,3.3-8.2,5.6-12C10.3,6.4,17.9,2.7,26,0C98.7,0,171.3,0,244,0z"/>
	<path class="st0" d="M512,180c-0.3,0.5-0.8,1-1,1.6c-5.5,11.6-17.9,14-27,4.9c-17.1-17-34.2-34.1-51.3-51.3
		c-1.6-1.6-3.1-3.5-4.9-5.6c-1.9,1.8-3.3,3.1-4.7,4.5C372.6,184.7,322,235.3,271.5,285.8c-11.9,11.9-18.9,12-30.7,0.2
		c-5.5-5.5-11.1-11.1-16.6-16.6c-9.1-9.2-9.1-17.7-0.1-26.8c51.1-51.1,102.3-102.3,153.4-153.4c1.4-1.4,3.2-2.5,5.6-4.3
		c-6.4-6.1-12-11.3-17.4-16.6c-12.8-12.7-25.5-25.4-38.2-38.2C315.8,18.4,317.4,7.8,332,0c56,0,112,0,168,0c5.7,2.3,9.7,6.3,12,12
		C512,68,512,124,512,180z"/>
</g>
</svg>
