<?xml version="1.0" encoding="utf-8"?>
<!-- Generator: Adobe Illustrator 20.1.0, SVG Export Plug-In . SVG Version: 6.00 Build 0)  -->
<svg version="1.1" id="Layer_1" xmlns="http://www.w3.org/2000/svg" xmlns:xlink="http://www.w3.org/1999/xlink" x="0px" y="0px"
	 viewBox="0 0 512 512" style="enable-background:new 0 0 512 512;" xml:space="preserve">
<style type="text/css">
	.st0{fill:#199E77;}
	.st1{fill:#FFFFFF;}
	.st2{fill:#D76127;}
	.st3{fill:#7570B3;}
	.st4{fill:#E62A8A;}
	.st5{fill:#66A744;}
</style>
<g id="Menu">
	<circle class="st0" cx="489.5" cy="22.5" r="30"/>
	<g>
		<path class="st1" d="M504.5,12.5c0,1.4-1.1,2.5-2.5,2.5h-25c-1.4,0-2.5-1.1-2.5-2.5l0,0c0-1.4,1.1-2.5,2.5-2.5h25
			C503.4,10,504.5,11.1,504.5,12.5L504.5,12.5z"/>
		<path class="st1" d="M504.5,22.5c0,1.4-1.1,2.5-2.5,2.5h-25c-1.4,0-2.5-1.1-2.5-2.5l0,0c0-1.4,1.1-2.5,2.5-2.5h25
			C503.4,20.1,504.5,21.2,504.5,22.5L504.5,22.5z"/>
		<path class="st1" d="M504.5,32.5c0,1.4-1.1,2.5-2.5,2.5h-25c-1.4,0-2.5-1.1-2.5-2.5l0,0c0-1.4,1.1-2.5,2.5-2.5h25
			C503.4,30.1,504.5,31.2,504.5,32.5L504.5,32.5z"/>
	</g>
</g>
<g id="Blog">
	<circle class="st2" cx="414.5" cy="22.5" r="30"/>
	<path class="st1" d="M407.7,37.3c0.5-0.9,0.9-1.8,1.5-2.9c-1.6,0-2.9,0-4.3,0c-2.5,0-3.8-1.3-3.8-3.8c0-6.4,0-12.9,0-19.3
		c0-2.5,1.3-3.8,3.7-3.8c6.5,0,13,0,19.5,0c2.5,0,3.7,1.2,3.7,3.7c0,6.5,0,13.1,0,19.6c0,2.4-1.2,3.7-3.7,3.7c-3.1,0-6.1-0.1-9.2,0
		c-1,0-2,0.3-2.9,0.7c-1.5,0.7-2.9,1.5-4.3,2.3C407.8,37.4,407.8,37.4,407.7,37.3z M423.4,13.4c-5.9,0-11.7,0-17.5,0
		c0,0.8,0,1.6,0,2.3c5.9,0,11.7,0,17.5,0C423.4,15,423.4,14.2,423.4,13.4z M423.4,19.6c-5.9,0-11.7,0-17.5,0c0,0.8,0,1.6,0,2.3
		c5.9,0,11.7,0,17.5,0C423.4,21.1,423.4,20.4,423.4,19.6z M405.9,27.9c5.9,0,11.7,0,17.5,0c0-0.8,0-1.5,0-2.3c-5.9,0-11.7,0-17.5,0
		C405.9,26.4,405.9,27.1,405.9,27.9z"/>
</g>
<g id="Profile">
	<circle class="st3" cx="321.2" cy="123.8" r="30"/>
	<path class="st1" d="M324.1,124.8c4.4,1.7,8.1,3.7,10.2,7.7c-2.7,3.2-6.1,5.3-10.2,6c-6,1-11.2-0.7-15.6-5c-0.6-0.6-0.6-1-0.1-1.6
		c1.6-2.4,3.7-4.3,6.3-5.5c1-0.5,1.9-0.9,3-1.4c-0.8-0.8-1.6-1.6-2.3-2.3c-3.1-3.1-3.2-7.9-0.3-11.2c2.8-3.1,7.6-3.5,11-0.9
		c3.6,2.7,4.2,8.3,1.1,11.6C326.2,123.1,325.2,123.8,324.1,124.8z"/>
</g>
<g id="Projects">
	<circle class="st4" cx="246.5" cy="242.5" r="30"/>
	<g>
		<path class="st1" d="M246.5,249.3c-1.1,0-2.2,0-3.3,0c-0.7,0-1.2-0.3-1.4-0.9c-0.2-0.7-0.4-1.4-0.5-2.1c-0.2-1.6-0.8-3-1.7-4.4
			c-0.4-0.7-0.8-1.3-1.3-2c-1.9-3-1.7-5.9,0.3-8.7c4-5.7,13.4-5,16.4,1.3c1.1,2.3,1.2,4.7-0.2,6.9c-0.6,0.9-1.1,1.8-1.7,2.7
			c-0.9,1.4-1.4,3-1.6,4.6c0,0.4-0.1,0.8-0.3,1.2c-0.4,1-0.7,1.3-1.7,1.2C248.6,249.3,247.5,249.3,246.5,249.3z M239.9,235.1
			c0,0.6,0.4,1.2,1,1.2c0.7,0.1,1.2-0.3,1.3-1c0.1-1.3,0.6-2.3,1.9-2.8c0.5-0.2,0.7-0.6,0.6-1.2c-0.2-0.6-0.6-0.8-1.2-0.8
			c-0.3,0-0.6,0.1-0.8,0.2C240.8,231.7,240.1,233.3,239.9,235.1z"/>
		<path class="st1" d="M246.5,252.6c-1,0-1.9,0-2.9,0c-0.8,0-1.4-0.5-1.4-1.1s0.6-1.1,1.4-1.1c1.9,0,3.8,0,5.7,0
			c0.8,0,1.4,0.5,1.4,1.1s-0.5,1.1-1.3,1.1C248.4,252.6,247.5,252.6,246.5,252.6z"/>
		<path class="st1" d="M246.5,255.6c-0.8,0-1.7,0-2.5,0c-0.3,0-0.7,0-0.9-0.2c-0.3-0.2-0.6-0.6-0.6-0.9c0-0.3,0.3-0.6,0.6-0.9
			c0.2-0.1,0.5-0.2,0.7-0.2c1.8,0,3.6,0,5.5,0c0.2,0,0.5,0,0.6,0.1c0.3,0.3,0.7,0.6,0.7,0.9c0,0.3-0.4,0.7-0.7,0.9
			c-0.2,0.2-0.6,0.1-0.8,0.1C248.2,255.6,247.3,255.6,246.5,255.6z"/>
		<path class="st1" d="M244.5,256.6c1.4,0,2.7,0,4,0c-0.1,0.6-0.5,0.9-1,0.9c-0.7,0-1.3,0-2,0C245,257.5,244.6,257.2,244.5,256.6z"
			/>
	</g>
</g>
<g id="History">
	<circle class="st5" cx="113.3" cy="373.6" r="30"/>
	<g>
		<path class="st1" d="M120.2,372.9c0,0.2-0.1,0.4-0.1,0.7c-0.1,1.2-0.5,2.3-1,3.3s-0.9,1.9-1.4,2.9c-0.6,1.3-0.9,2.7-0.9,4.2
			c0,1-0.2,1.9-0.7,2.8c-0.8,1.2-1.9,1.9-3.4,1.8c-0.6,0-1.3-0.1-1.9-0.4c-0.9-0.4-1.5-1-1.8-2c-0.3-1.1-0.4-2.1-0.1-3.2
			c0.2-0.7,0.5-1.2,1-1.8c0.5-0.6,1-1.2,1.5-1.7c0.5-0.7,0.9-1.4,0.9-2.3c0.1-1.3-0.3-2.5-1.2-3.5c-0.6-0.6-1.3-1.2-1.9-1.8
			c-0.6-0.5-1.1-1.1-1.4-1.9c-0.3-0.9-0.4-1.8,0-2.7c0.3-0.8,0.9-1.3,1.7-1.5c0.6-0.2,1.2-0.3,1.7-0.2c1.8,0,3.5,0.4,5.1,1.1
			c1.2,0.6,2.3,1.3,3,2.5c0.4,0.7,0.7,1.5,0.8,2.3c0,0.1,0,0.2,0.1,0.3C120.2,372.1,120.2,372.5,120.2,372.9z"/>
		<path class="st1" d="M106.4,361c0-0.6,0.1-1.2,0.5-1.7c0.5-0.8,1.5-1,2.2-0.4c0.5,0.4,0.8,0.9,1,1.5c0.3,0.9,0.3,1.7,0,2.6
			c-0.1,0.3-0.3,0.6-0.6,0.9c-0.6,0.4-1.3,0.4-1.8-0.1c-0.6-0.5-0.9-1.2-1.1-2C106.4,361.6,106.4,361.3,106.4,361z"/>
		<path class="st1" d="M113.8,362c0,0.4-0.1,0.9-0.4,1.3c-0.4,0.6-1.1,0.7-1.7,0.2c-0.6-0.6-0.8-1.3-0.7-2.1c0-0.3,0.1-0.7,0.3-1
			c0.4-0.6,1.1-0.7,1.7-0.2C113.6,360.6,113.8,361.2,113.8,362z"/>
		<path class="st1" d="M116.7,362.6c0,0.4-0.1,0.9-0.4,1.2c-0.4,0.5-1,0.5-1.4,0c-0.5-0.7-0.5-1.9,0-2.5c0.4-0.5,1-0.5,1.4,0
			C116.6,361.7,116.7,362.1,116.7,362.6z"/>
		<path class="st1" d="M118.7,363.5c0,0.5-0.1,0.9-0.4,1.2c-0.5,0.5-1.1,0.4-1.3-0.2c-0.2-0.6-0.1-1.2,0.3-1.7
			c0.5-0.5,1.1-0.4,1.3,0.3C118.6,363.3,118.7,363.4,118.7,363.5z"/>
		<path class="st1" d="M120,365.5c0,0.3-0.1,0.6-0.3,0.8c-0.2,0.3-0.6,0.3-0.8,0c-0.4-0.4-0.4-1.3,0-1.7c0.3-0.3,0.6-0.3,0.9,0
			C119.9,364.9,120,365.2,120,365.5z"/>
	</g>
</g>
</svg>
