<?xml version="1.0" encoding="UTF-8" standalone="no"?>
<svg
   xmlns:dc="http://purl.org/dc/elements/1.1/"
   xmlns:cc="http://creativecommons.org/ns#"
   xmlns:rdf="http://www.w3.org/1999/02/22-rdf-syntax-ns#"
   xmlns:svg="http://www.w3.org/2000/svg"
   xmlns="http://www.w3.org/2000/svg"
   xmlns:sodipodi="http://sodipodi.sourceforge.net/DTD/sodipodi-0.dtd"
   xmlns:inkscape="http://www.inkscape.org/namespaces/inkscape"
   sodipodi:docname="brainVsDisk.svg"
   inkscape:version="1.0 (4035a4fb49, 2020-05-01)"
   id="svg8"
   version="1.1"
   viewBox="0 0 512 512"
   height="512"
   width="512">
  <defs
     id="defs2">
    <marker
       inkscape:stockid="Arrow2Send"
       orient="auto"
       refY="0.0"
       refX="0.0"
       id="marker21407"
       style="overflow:visible;"
       inkscape:isstock="true">
      <path
         id="path21405"
         style="fill-rule:evenodd;stroke-width:0.625;stroke-linejoin:round;stroke:#000000;stroke-opacity:1;fill:#000000;fill-opacity:1"
         d="M 8.7185878,4.0337352 L -2.2072895,0.016013256 L 8.7185884,-4.0017078 C 6.9730900,-1.6296469 6.9831476,1.6157441 8.7185878,4.0337352 z "
         transform="scale(0.3) rotate(180) translate(-2.3,0)" />
    </marker>
    <marker
       inkscape:collect="always"
       inkscape:isstock="true"
       style="overflow:visible;"
       id="Arrow2Send"
       refX="0.0"
       refY="0.0"
       orient="auto"
       inkscape:stockid="Arrow2Send">
      <path
         transform="scale(0.3) rotate(180) translate(-2.3,0)"
         d="M 8.7185878,4.0337352 L -2.2072895,0.016013256 L 8.7185884,-4.0017078 C 6.9730900,-1.6296469 6.9831476,1.6157441 8.7185878,4.0337352 z "
         style="fill-rule:evenodd;stroke-width:0.625;stroke-linejoin:round;stroke:#000000;stroke-opacity:1;fill:#000000;fill-opacity:1"
         id="path21110" />
    </marker>
    <marker
       inkscape:isstock="true"
       style="overflow:visible;"
       id="Arrow1Send"
       refX="0.0"
       refY="0.0"
       orient="auto"
       inkscape:stockid="Arrow1Send">
      <path
         transform="scale(0.2) rotate(180) translate(6,0)"
         style="fill-rule:evenodd;stroke:#000000;stroke-width:1pt;stroke-opacity:1;fill:#000000;fill-opacity:1"
         d="M 0.0,0.0 L 5.0,-5.0 L -12.5,0.0 L 5.0,5.0 L 0.0,0.0 z "
         id="path21092" />
    </marker>
    <clipPath
       id="clipPath28"
       clipPathUnits="userSpaceOnUse">
      <rect
         y="472.88971"
         x="110.10663"
         height="86.873116"
         width="91.923882"
         id="rect30"
         style="fill:#000000" />
    </clipPath>
  </defs>
  <sodipodi:namedview
     inkscape:snap-global="false"
     inkscape:document-rotation="0"
     inkscape:pagecheckerboard="false"
     inkscape:window-maximized="1"
     inkscape:window-y="-6"
     inkscape:window-x="-6"
     inkscape:window-height="938"
     inkscape:window-width="1500"
     units="px"
     showgrid="true"
     inkscape:current-layer="layer1"
     inkscape:document-units="px"
     inkscape:cy="262.4885"
     inkscape:cx="339.09482"
     inkscape:zoom="0.7"
     inkscape:pageshadow="2"
     inkscape:pageopacity="0.0"
     borderopacity="1.0"
     bordercolor="#666666"
     pagecolor="#ffffff"
     id="base">
    <inkscape:grid
       spacingy="20"
       spacingx="20"
       id="grid1358"
       type="xygrid" />
  </sodipodi:namedview>
  <metadata
     id="metadata5">
    <rdf:RDF>
      <cc:Work
         rdf:about="">
        <dc:format>image/svg+xml</dc:format>
        <dc:type
           rdf:resource="http://purl.org/dc/dcmitype/StillImage" />
        <dc:title></dc:title>
      </cc:Work>
    </rdf:RDF>
  </metadata>
  <g
     transform="translate(0,-11.25001)"
     id="layer1"
     inkscape:groupmode="layer"
     inkscape:label="Layer 1">
    <path
       id="path17712"
       style="fill:#000000;stroke-width:2.27476"
       d="M 114.52551,11.250105 C 98.357751,11.221285 82.305864,17.763921 70.087325,30.883412 64.589587,36.786521 58.72552,44.939969 57.056208,49.006151 c -2.327349,5.669099 -4.429382,7.408127 -9.014707,7.446306 -7.557735,0.06318 -24.780642,7.79212 -31.873598,14.30626 C 6.9573013,79.217681 0.02487778,96.897033 8.138416e-5,111.98468 -0.04127262,137.17956 15.680363,157.73602 40.346353,164.73114 c 11.580528,3.28415 13.622206,4.77094 17.71841,12.94672 6.915442,13.80283 19.670218,19.75774 42.323357,19.75774 16.33692,0 18.3983,0.53184 25.01814,6.44668 6.82257,6.09597 7.26815,7.48624 8.16164,25.59128 0.51968,10.52978 1.35095,20.42415 1.84826,21.98807 0.49734,1.56389 3.4614,2.84346 6.58446,2.84346 8.66564,0 11.17219,-7.11876 9.76109,-27.70611 -2.32471,-33.91747 -16.60601,-47.36164 -50.31174,-47.36164 -16.480387,0 -18.100286,-0.43967 -24.30725,-6.64664 -7.110897,-7.11089 -8.48503,-15.22568 -4.003108,-23.64084 3.532662,-6.63283 8.844242,-10.49503 14.550622,-10.58307 8.360337,-0.1291 13.234796,-5.45089 11.462747,-12.51128 -1.51097,-6.02025 -2.10505,-6.26902 -12.555715,-5.26487 -13.40422,1.28798 -23.773474,8.26157 -29.772088,20.01983 -4.271309,8.37251 -4.792274,8.66378 -11.8893,6.63774 -31.309649,-8.9382 -36.4709047,-48.790857 -8.73923,-67.47923 10.464354,-7.051943 15.232695,-6.661667 16.838705,1.368451 1.511155,7.555878 6.786495,10.385652 13.075565,7.019802 3.364788,-1.800764 4.395828,-4.840855 4.434039,-13.071102 0.152229,-32.650114 31.645563,-54.659859 60.788163,-42.483293 10.40248,4.346414 15.57983,8.898426 22.51679,19.815478 4.84698,7.627955 6.42467,8.530406 14.91047,8.530406 12.75884,0 27.87338,7.683295 33.71295,17.131946 6.99046,11.310794 7.98057,21.753725 3.29668,34.779272 -2.22095,6.17614 -3.40001,12.89024 -2.62134,14.91937 1.54767,4.03318 11.81443,5.06363 14.07076,1.41284 2.68588,-4.34582 5.93805,-2.22458 9.43678,6.14901 7.25229,17.35717 -5.7919,36.90643 -25.8223,38.69792 -9.58252,0.85708 -11.92022,0.1314 -19.18459,-5.96241 -11.79537,-9.89485 -12.93074,-16.81882 -4.35851,-26.58207 7.75488,-8.83233 9.88414,-15.11195 8.81477,-25.97336 -1.61492,-16.402467 -15.67789,-14.6071 -17.98944,2.29702 -0.77396,5.65998 -3.10522,11.04976 -5.55364,12.84007 -6.12548,4.47906 -17.77644,3.77936 -24.44503,-1.46618 -6.92547,-5.44758 -11.46378,-5.76444 -15.35921,-1.07074 -6.12399,7.37899 9.28137,23.78919 22.35239,23.80966 3.81743,0.006 6.12568,2.14144 8.52599,7.88621 4.25313,10.17914 15.77596,23.24742 24.45834,27.73722 7.55472,3.90669 23.31004,4.94122 35.97887,2.36364 9.12259,-1.85606 22.56352,-13.6005 28.61691,-25.00483 8.22392,-15.49355 3.05357,-42.63098 -10.44534,-54.83911 -2.95136,-2.66913 -4.78947,-7.10105 -4.78947,-11.538287 0,-26.207378 -21.25572,-50.672768 -47.69934,-54.901257 C 172.45193,42.466561 167.89447,39.612824 159.6435,31.03893 146.97551,17.875171 130.69331,11.278856 114.52551,11.250105 Z m 3.05673,51.973411 c -9.978,0 -16.02645,2.660007 -24.907059,10.942923 -6.721933,6.269485 -7.891855,11.537086 -3.527683,15.901274 4.122293,4.12227 8.421113,3.32016 15.883472,-2.959 3.71717,-3.127836 9.42949,-5.686946 12.69346,-5.686946 8.40399,0 16.46549,8.32438 16.46549,17.003096 0,3.910647 1.27057,8.383687 2.82572,9.938837 1.5551,1.5551 5.3938,2.52583 8.53045,2.15927 5.13847,-0.60051 5.77131,-1.79919 6.37557,-12.120357 0.52372,-8.944427 -0.47337,-13.131481 -4.54956,-19.104582 -6.57247,-9.631147 -18.51358,-16.074515 -29.78986,-16.074515 z" />
    <path
       d="m 386.16238,252.22845 c -11.15885,0.0939 -22.43653,0.083 -33.37619,2.58125 -15.43623,3.18581 -30.50101,8.31401 -44.53485,15.50872 -6.25401,3.26374 -12.41918,7.00634 -17.13222,12.34699 -3.24011,3.36978 -5.92434,7.21208 -8.32858,11.20869 -0.77758,1.328 -1.77196,2.59296 -2.41476,3.96021 0.028,46.54446 -0.0665,93.08915 0.073,139.63346 0.12227,11.32621 0.006,22.67039 0.80382,33.9751 0.28539,3.84217 1.01675,7.74863 3.10493,11.05487 4.56703,7.87133 11.8705,13.72241 19.50003,18.46117 13.38586,8.14675 28.39908,13.266 43.61479,16.74587 10.58361,2.41214 21.37188,3.7831 32.1871,4.60601 7.75725,0.69487 15.563,1.31816 23.34747,0.66057 12.16666,-0.88043 24.35111,-1.93348 36.33695,-4.28354 16.15527,-3.14302 32.18591,-7.92222 46.5885,-16.03195 8.61745,-4.95961 16.86563,-11.28148 21.97243,-19.97791 1.94638,-3.05573 2.82355,-6.63144 3.10528,-10.21039 0.8364,-9.9977 0.73875,-20.04415 0.8766,-30.0688 0.18989,-40.65576 0.0762,-81.31225 0.10814,-121.96834 0,-7.58217 0,-15.16435 0,-22.74652 -3.04897,-4.72203 -5.80362,-9.68344 -9.65294,-13.82611 -3.30502,-3.81666 -7.17354,-7.12944 -11.50546,-9.72937 -9.75826,-5.96989 -20.40109,-10.3695 -31.22547,-13.99727 -8.61067,-2.83234 -17.44415,-5.00413 -26.3843,-6.49732 -10.48315,-1.55356 -21.1161,-1.32101 -31.6838,-1.41496 -5.12679,-0.0205 -10.25356,4e-4 -15.38037,0.009 z m 9.32081,15.93909 c 2.44167,-0.002 4.97248,0.051 7.18227,0.14093 7.2451,0.33269 14.56947,1.01219 21.65847,1.96521 2.43779,0.34391 5.19582,0.75379 7.74628,1.19851 5.7772,1.00096 11.58212,2.24596 17.14103,3.74378 11.44742,3.13503 22.81386,7.26096 32.70776,13.93808 5.30829,3.68817 10.46948,8.28815 12.74427,14.51062 1.85502,4.96211 0.52758,10.63072 -2.59136,14.78059 -4.44911,5.94221 -10.8786,10.00089 -17.33274,13.46185 -13.01137,6.71189 -27.22719,10.80382 -41.57766,13.46569 -7.76856,1.31293 -15.79255,1.8937 -23.54877,2.41661 -5.10016,0.30414 -10.20845,0.53744 -15.22478,0.64602 -5.33334,0.0952 -10.68014,0.16217 -16.00125,-0.27295 -0.84229,-0.094 -2.19476,-0.22696 -3.23269,-0.33589 -17.5108,-1.98787 -34.92114,-5.93166 -51.13525,-12.94179 -7.77092,-3.50436 -15.50767,-7.62068 -21.51158,-13.78879 -3.637,-3.70144 -6.23494,-8.89528 -5.42857,-14.19124 0.9185,-6.11361 5.26345,-11.02353 9.83965,-14.86738 8.32518,-6.75796 18.30702,-11.1142 28.40218,-14.50371 8.17164,-2.69733 16.5676,-4.67741 25.03566,-6.18487 1.06279,-0.17099 2.37413,-0.40997 3.5015,-0.58188 8.84044,-1.40279 17.76903,-2.26118 26.71695,-2.52604 1.47987,-0.0359 3.30387,-0.0689 4.90863,-0.0734 z m -95.25847,73.53243 c 11.5994,8.14007 25.07919,13.12971 38.68335,16.77205 22.08225,5.72612 45.03789,7.74144 67.80573,6.93265 14.58049,-0.55668 29.1441,-2.37413 43.28597,-6.02255 12.73126,-3.2805 25.30576,-7.63411 36.73548,-14.21337 2.82373,-1.61214 5.47512,-3.49805 8.11307,-5.39287 0.15764,9.17787 0.85726,18.41557 -0.33946,27.55257 -0.49127,3.54803 -3.02795,6.362 -5.44275,8.82184 -6.3184,6.0262 -14.19909,10.09668 -22.1536,13.52559 -11.19179,4.7111 -22.97744,7.91866 -34.91574,10.06689 -1.28604,0.22093 -2.9995,0.44165 -4.4558,0.64023 -7.40483,0.90185 -14.90607,1.44308 -22.261,1.83346 -6.27801,0.31514 -12.37738,0.51871 -18.6746,0.48187 -3.97446,-0.009 -7.95303,-0.17608 -11.89352,-0.72009 -2.04952,-0.26379 -4.44656,-0.5725 -6.62419,-0.9076 -15.56669,-2.40181 -31.04066,-6.18004 -45.46308,-12.61398 -8.14884,-3.72388 -16.21135,-8.36558 -21.95244,-15.39765 -3.23207,-4.09604 -3.39063,-9.55725 -3.51143,-14.54103 -0.0674,-6.24933 0.22448,-12.49528 0.35854,-18.7421 0.90182,0.64137 1.80365,1.28273 2.70547,1.92409 z m -2.11795,52.77874 c 10.48874,7.85513 22.82431,12.80841 35.28863,16.57065 21.12159,6.17228 43.18716,8.81718 65.16219,8.7929 17.93177,-0.0535 35.89628,-2.13151 53.22785,-6.80124 12.61861,-3.41134 25.08697,-7.83305 36.39174,-14.47914 2.30582,-1.38824 4.54662,-2.88653 6.67702,-4.53262 0.15847,9.1417 0.84468,18.34311 -0.34564,27.44383 -0.49775,3.58249 -3.07259,6.41557 -5.50337,8.90493 -5.61132,5.39166 -12.52215,9.19388 -19.5372,12.44079 -0.6275,0.2775 -1.74267,0.78193 -2.57237,1.12889 -11.68022,4.92345 -24.00806,8.26814 -36.51892,10.24673 -8.57085,1.16828 -17.26187,1.75778 -25.81065,2.22811 -6.12938,0.3001 -12.073,0.51975 -18.22976,0.47666 -3.82634,0.0469 -7.63004,-0.35665 -11.40406,-0.95576 -9.41508,-1.31253 -18.90173,-2.35739 -28.1101,-4.80998 -12.38022,-3.2133 -24.54564,-7.75835 -35.38437,-14.6305 -4.74788,-3.13184 -9.49996,-6.69646 -12.44557,-11.66749 -1.50602,-2.61982 -1.35631,-5.76913 -1.63581,-8.68567 -0.4073,-7.37014 0.002,-14.74932 0.15994,-22.12054 0.19681,0.1498 0.39363,0.29963 0.59045,0.44945 z m -0.68446,53.98017 c 10.44115,7.83737 22.72814,12.77783 35.1387,16.54847 21.34445,6.27703 43.65225,8.97758 65.87027,8.97405 18.00637,-0.0352 36.04572,-2.11476 53.45329,-6.78683 12.48089,-3.35051 24.81107,-7.67813 36.05894,-14.11673 2.60662,-1.50395 5.12437,-3.16449 7.507,-5.00377 -0.0782,6.63958 0.19879,13.29473 -0.28494,19.92238 -0.13656,2.76077 -1.39406,5.28816 -3.08936,7.42014 -3.80454,5.28606 -9.28214,9.05316 -14.83549,12.30249 -0.55049,0.29554 -1.58522,0.896 -2.33881,1.28174 -8.80969,4.67795 -18.26421,8.03956 -27.88258,10.62116 -0.77545,0.20284 -1.92701,0.50807 -2.75233,0.70377 -10.59725,2.71497 -21.56433,3.46845 -32.44469,4.14732 -3.37007,0.18468 -6.48358,0.31197 -9.87029,0.42078 -7.32534,0.2031 -14.65746,0.23575 -21.98198,-0.0196 -3.60716,-0.13355 -7.49036,-0.35795 -11.18908,-0.73437 -0.81824,-0.0868 -2.14987,-0.24023 -3.1598,-0.38649 -3.66366,-0.55554 -7.296,-1.30128 -10.92275,-2.05755 -2.37153,-0.5229 -5.06008,-1.13079 -7.53716,-1.76281 -11.97033,-3.07956 -23.89462,-7.01748 -34.49474,-13.49459 -5.87356,-3.65272 -11.51459,-8.31473 -14.53038,-14.68198 -1.38064,-3.84034 -1.08063,-8.00979 -1.20249,-12.02332 -0.0241,-3.88632 -0.0105,-7.77274 -0.0135,-11.65911 0.16745,0.12829 0.33488,0.25656 0.50233,0.38481 z"
       style="fill:#000000;stroke-width:1.50402"
       id="path21070" />
    <path
       sodipodi:nodetypes="cc"
       id="path21075"
       d="m 301.81225,75.879466 c 116.18511,0 105.05587,-8.08122 105.05587,98.994954"
       style="fill:none;stroke:#000000;stroke-width:15;stroke-linecap:butt;stroke-linejoin:miter;stroke-miterlimit:4;stroke-dasharray:none;stroke-opacity:1;marker-end:url(#Arrow2Send)" />
    <path
       style="fill:none;stroke:#000000;stroke-width:15;stroke-linecap:butt;stroke-linejoin:miter;stroke-miterlimit:4;stroke-dasharray:none;stroke-opacity:1;marker-end:url(#marker21407)"
       d="m 198.27305,412.32856 c -116.185112,0 -105.05587,8.08122 -105.05587,-98.99495"
       id="path21403"
       sodipodi:nodetypes="cc" />
  </g>
</svg>
