<?xml version="1.0" encoding="UTF-8" standalone="no"?>
<svg
   xmlns:dc="http://purl.org/dc/elements/1.1/"
   xmlns:cc="http://creativecommons.org/ns#"
   xmlns:rdf="http://www.w3.org/1999/02/22-rdf-syntax-ns#"
   xmlns:svg="http://www.w3.org/2000/svg"
   xmlns="http://www.w3.org/2000/svg"
   xmlns:sodipodi="http://sodipodi.sourceforge.net/DTD/sodipodi-0.dtd"
   xmlns:inkscape="http://www.inkscape.org/namespaces/inkscape"
   sodipodi:docname="consulting.svg"
   inkscape:version="1.0 (4035a4fb49, 2020-05-01)"
   id="svg8"
   version="1.1"
   viewBox="0 0 512 512"
   height="512"
   width="512">
  <defs
     id="defs2" />
  <sodipodi:namedview
     inkscape:document-rotation="0"
     inkscape:pagecheckerboard="false"
     inkscape:window-maximized="1"
     inkscape:window-y="-6"
     inkscape:window-x="-6"
     inkscape:window-height="938"
     inkscape:window-width="1500"
     units="px"
     showgrid="true"
     inkscape:current-layer="layer1"
     inkscape:document-units="px"
     inkscape:cy="688.01349"
     inkscape:cx="-132.19944"
     inkscape:zoom="0.35"
     inkscape:pageshadow="2"
     inkscape:pageopacity="0.0"
     borderopacity="1.0"
     bordercolor="#666666"
     pagecolor="#ffffff"
     id="base">
    <inkscape:grid
       spacingy="20"
       spacingx="20"
       id="grid1358"
       type="xygrid" />
  </sodipodi:namedview>
  <metadata
     id="metadata5">
    <rdf:RDF>
      <cc:Work
         rdf:about="">
        <dc:format>image/svg+xml</dc:format>
        <dc:type
           rdf:resource="http://purl.org/dc/dcmitype/StillImage" />
        <dc:title></dc:title>
      </cc:Work>
    </rdf:RDF>
  </metadata>
  <g
     transform="translate(0,-11.25001)"
     id="layer1"
     inkscape:groupmode="layer"
     inkscape:label="Layer 1">
    <path
       id="path22"
       d="m 506.71829,520.89461 c -1.17064,-6.9014 -3.09321,-13.5279 -5.10952,-17.6109 -2.78833,-5.6464 -8.84232,-12.2774 -15.7384,-17.2385 -6.35253,-4.5702 -19.95076,-11.5947 -33.72956,-17.4242 -16.47392,-6.9695 -24.59497,-11.3159 -29.4416,-15.7569 -7.91579,-7.2534 -8.08791,-9.6431 -1.41168,-19.6009 10.62798,-15.8516 18.08953,-34.4092 21.48489,-53.4349 1.70578,-9.5583 1.57997,-26.8093 -0.25769,-35.3333 -2.74101,-12.7143 -7.54509,-22.1123 -15.14562,-29.6287 -5.4352,-5.375 -9.85488,-8.1842 -17.17709,-10.9182 -5.08141,-1.8972 -5.23203,-1.9137 -17.67811,-1.92 -14.48981,-0.01 -17.07433,0.4878 -26.64463,5.1056 -4.98103,2.4034 -6.80159,3.7318 -11.35502,8.2852 -4.63328,4.6333 -5.89641,6.3816 -8.67488,12.0068 -5.773,11.688 -8.0953,25.7132 -6.95117,41.9801 1.5643,22.2408 8.19068,41.9586 20.50959,61.0295 8.0452,12.4549 8.07131,12.5384 5.28726,16.8996 -4.59539,7.1986 -10.78228,10.9815 -35.56396,21.745 -28.64594,12.4417 -42.56804,22.1498 -48.24684,33.6427 -2.13192,4.3147 -4.26328,12.28 -4.90403,18.3273 l -0.19951,1.8829 115.67354,0.1586 115.67356,0.1586 z m -191.09171,-71.397 v -10.9839 H 202.33548 89.044385 v -55.0709 -55.071 l 13.403355,13.3924 13.40336,13.3926 7.93679,-7.9368 c 4.36524,-4.3652 7.93678,-8.072 7.93678,-8.2371 0,-0.1653 -11.59697,-11.8023 -25.77106,-25.86 -15.778265,-15.6487 -26.233425,-25.5594 -26.963505,-25.5594 -0.73146,0 -10.893072,9.6629 -26.285317,24.9951 -13.801083,13.7473 -25.411388,25.3789 -25.800677,25.848 -0.560806,0.6757 0.949568,2.503 7.272794,8.7988 l 7.98059,7.9458 12.30837,-12.2968 c 6.769599,-6.7632 12.517614,-12.2967 12.773362,-12.2967 0.25575,0 0.464996,29.2328 0.464996,64.9618 v 64.962 H 191.66541 315.62658 Z m 163.49992,-214.9673 26.35244,-26.3581 -7.83201,-7.8509 -7.832,-7.8508 -12.71747,12.706 -12.71746,12.7062 V 152.45581 87.028814 H 339.79117 215.20233 v 11.2977 11.297796 h 113.29111 113.29111 v 54.6057 c 0,30.0331 -0.20938,54.6056 -0.46526,54.6056 -0.2559,0 -6.31125,-5.841 -13.45632,-12.9799 l -12.99105,-12.98 -7.32514,6.8318 c -4.02882,3.7574 -7.4764,7.226 -7.66127,7.7078 -0.21373,0.557 9.23962,10.4538 25.95677,27.1746 14.4611,14.464 26.43666,26.2984 26.61235,26.2984 0.17568,0 12.17802,-11.8611 26.67187,-26.358 z m -243.21166,-2.3987 c 0,-1.6293 -1.50385,-8.5396 -2.62034,-12.0407 -2.2824,-7.157 -5.48805,-12.5117 -10.55364,-17.6286 -7.67359,-7.7512 -16.04303,-12.6921 -36.09667,-21.3095 -24.0533,-10.3363 -32.11465,-14.7014 -36.86995,-19.965 -2.73566,-3.0281 -4.87858,-7.0161 -4.84407,-9.0151 0.0137,-0.7905 2.13405,-4.2617 4.71204,-7.7137 8.05656,-10.7884 15.83095,-28.0408 19.65703,-43.6218 3.6873,-15.015996 4.85363,-31.866596 2.97037,-42.914896 -4.68499,-27.4851 -19.75946,-42.99178 -44.93258,-46.22096 -16.92761,-2.1714803 -33.905475,3.5858 -44.991945,15.25696 -4.84151,5.0968 -7.32676,9.0613 -10.15124,16.1927 -3.269511,8.2551 -4.052827,13.3641 -4.032949,26.3036 0.02793,18.1961 2.802599,33.772296 8.692049,48.795096 3.6243,9.2447 6.58631,14.7325 13.22764,24.507 6.06812,8.9308 6.43602,10.555 3.45543,15.2548 -4.28853,6.7624 -13.91796,12.5018 -36.150214,21.547 -19.638551,7.9899 -31.399473,14.8831 -39.675988,23.2541 -7.410455,7.4952 -9.945452,13.1026 -12.422109,27.4777 l -0.405519,2.3537 H 120.3985 c 63.53399,0 115.51634,-0.2305 115.51634,-0.5124 z"
       style="fill:#000000;stroke-width:0.627651" />
  </g>
</svg>
