<?xml version="1.0" encoding="UTF-8" standalone="no"?>
<!-- Created with Inkscape (http://www.inkscape.org/) -->

<svg
   xmlns:dc="http://purl.org/dc/elements/1.1/"
   xmlns:cc="http://creativecommons.org/ns#"
   xmlns:rdf="http://www.w3.org/1999/02/22-rdf-syntax-ns#"
   xmlns:svg="http://www.w3.org/2000/svg"
   xmlns="http://www.w3.org/2000/svg"
   xmlns:sodipodi="http://sodipodi.sourceforge.net/DTD/sodipodi-0.dtd"
   xmlns:inkscape="http://www.inkscape.org/namespaces/inkscape"
   width="500"
   height="500"
   viewBox="0 0 500 500"
   version="1.1"
   id="svg8"
   inkscape:version="0.92.4 (5da689c313, 2019-01-14)"
   sodipodi:docname="contact.svg">
  <defs
     id="defs2" />
  <sodipodi:namedview
     id="base"
     pagecolor="#ffffff"
     bordercolor="#666666"
     borderopacity="1.0"
     inkscape:pageopacity="0.0"
     inkscape:pageshadow="2"
     inkscape:zoom="0.75925926"
     inkscape:cx="222.86352"
     inkscape:cy="155.29793"
     inkscape:document-units="px"
     inkscape:current-layer="layer1"
     showgrid="true"
     units="px"
     inkscape:window-width="1498"
     inkscape:window-height="1877"
     inkscape:window-x="-11"
     inkscape:window-y="0"
     inkscape:window-maximized="0"
     inkscape:pagecheckerboard="false"
     inkscape:snap-grids="false">
    <inkscape:grid
       type="xygrid"
       id="grid1358"
       spacingx="20"
       spacingy="20" />
  </sodipodi:namedview>
  <metadata
     id="metadata5">
    <rdf:RDF>
      <cc:Work
         rdf:about="">
        <dc:format>image/svg+xml</dc:format>
        <dc:type
           rdf:resource="http://purl.org/dc/dcmitype/StillImage" />
        <dc:title />
      </cc:Work>
    </rdf:RDF>
  </metadata>
  <g
     inkscape:label="Layer 1"
     inkscape:groupmode="layer"
     id="layer1"
     transform="translate(0,-591.25001)">
    <g
       id="g903"
       style="font-style:normal;font-weight:normal;font-size:40px;line-height:1.25;font-family:sans-serif;letter-spacing:0px;word-spacing:0px;fill:#000000;fill-opacity:1;stroke:none;stroke-width:1.05628908"
       aria-label="@"
       transform="matrix(0.94671055,0,0,0.94671055,-172.10357,280.2445)">
      <path
         sodipodi:type="inkscape:offset"
         inkscape:radius="14.071944"
         inkscape:original="M 468.82617 342.58398 C 419.25446 342.58398 374.05619 353.60999 333.23242 375.66211 C 292.40866 397.71424 260.69848 429.1528 238.09961 469.97656 C 215.50074 510.61808 204.20117 554.81327 204.20117 602.5625 C 204.20117 671.99935 226.98074 729.31593 272.54297 774.51367 C 318.10521 819.89366 375.97087 842.58398 446.13672 842.58398 C 501.5404 842.58398 550.10874 828.27714 591.84375 799.66406 C 633.76101 771.23322 665.65552 730.22767 687.52539 676.64648 L 670.84961 676.64648 C 653.90046 722.02647 625.1044 758.4765 584.46289 785.99609 C 543.82138 813.51568 497.8936 827.27539 446.68164 827.27539 C 384.53475 827.27539 333.32389 807.13639 293.04688 766.85938 C 252.95211 726.7646 232.9043 675.18899 232.9043 612.13086 C 232.9043 566.20412 243.65674 523.19242 265.16211 483.09766 C 286.66748 443.00289 315.7371 412.47621 352.36914 391.51758 C 389.00118 370.3767 429.73317 359.80664 474.56641 359.80664 C 526.50736 359.80664 568.60717 376.02648 600.86523 408.4668 C 633.30555 440.72486 649.52539 482.00397 649.52539 532.30469 C 649.52539 562.74026 642.96568 591.44512 629.84375 618.41797 C 616.90408 645.20856 600.40871 665.89274 580.36133 680.47266 C 560.49619 694.87032 544.27635 702.07031 531.70117 702.07031 C 525.50471 702.07031 520.21968 699.97492 515.8457 695.7832 C 511.65398 691.40922 509.55859 686.30462 509.55859 680.47266 C 509.55859 670.99572 512.38348 656.78202 518.0332 637.82812 L 568.06055 466.14844 L 501.35742 468.88281 L 492.0625 501.41406 C 489.69327 485.5584 485.13774 474.44121 478.39453 468.0625 C 471.83357 461.68379 463.45008 458.49414 453.24414 458.49414 C 443.40269 458.49414 434.19851 460.86309 425.63281 465.60156 C 408.86591 474.53176 393.73838 485.83133 380.25195 499.5 C 366.94778 513.16867 355.19422 528.66096 344.98828 545.97461 C 334.78234 563.10601 326.67242 581.51243 320.6582 601.19531 C 314.82624 620.69595 311.91016 640.65257 311.91016 661.06445 C 311.91016 680.92959 316.2833 696.05517 325.03125 706.44336 C 333.96145 716.6493 344.89626 721.75391 357.83594 721.75391 C 367.13064 721.75391 375.42294 719.83895 382.71289 716.01172 C 394.01233 709.99751 405.40309 700.52171 416.88477 687.58203 C 425.26822 677.92284 437.02373 660.51754 452.15039 635.36719 C 447.77642 651.22285 445.58984 664.07067 445.58984 673.91211 C 445.58984 687.94528 450.32774 699.42722 459.80469 708.35742 C 469.28163 717.28762 483.04134 721.75391 501.08398 721.75391 C 529.15032 721.75391 555.30386 714.37154 579.54297 699.60938 C 603.96433 684.66496 624.28375 661.60988 640.50391 630.44531 C 656.90631 599.28074 665.10742 564.83686 665.10742 527.11133 C 665.10742 494.67101 657.54463 463.87077 642.41797 434.71094 C 627.2913 405.55111 604.60098 382.95198 574.34766 366.91406 C 544.27658 350.69391 509.10319 342.58398 468.82617 342.58398 z M 460.07812 478.17773 C 464.8166 478.17773 468.91617 480.63787 472.37891 485.55859 C 477.11738 492.11955 479.48828 501.68654 479.48828 514.26172 C 479.48828 531.75762 476.11626 550.89549 469.37305 571.67188 C 462.62983 592.26601 453.97278 611.03717 443.40234 627.98633 C 432.8319 644.93547 422.89821 656.9626 413.60352 664.07031 C 407.04256 669.17328 402.03109 671.72656 398.56836 671.72656 C 394.55889 671.72656 390.82406 669.53804 387.36133 665.16406 C 384.08085 660.79009 382.43945 654.59513 382.43945 646.57617 C 382.43945 620.15007 391.73483 585.15711 410.32422 541.59961 C 420.71241 517.3605 430.46177 500.0464 439.57422 489.6582 C 446.31743 482.00375 453.15267 478.17773 460.07812 478.17773 z "
         style="font-style:normal;font-variant:normal;font-weight:bold;font-stretch:normal;font-size:192px;font-family:garamond;-inkscape-font-specification:'garamond Bold';stroke-width:1.05628908"
         id="path901"
         d="m 468.82617,328.51172 c -51.65835,0 -99.36186,11.5854 -142.28125,34.76953 -43.06342,23.26195 -76.9382,56.85542 -100.75586,99.88086 -23.72785,42.68096 -35.66015,89.44011 -35.66015,139.40039 0,72.50458 24.37724,134.18934 72.48437,181.92188 0.003,0.003 0.005,0.005 0.008,0.008 0.004,0.004 0.008,0.008 0.0117,0.0117 48.11863,47.91587 110.3143,72.15234 183.50391,72.15234 57.81698,0 109.5171,-15.12756 153.64258,-45.37305 44.35601,-30.09683 78.05237,-73.64697 100.77539,-129.31836 a 14.073351,14.073351 0 0 0 -13.0293,-19.39062 h -16.67578 a 14.073351,14.073351 0 0 0 -13.18164,9.14844 c -15.98544,42.79973 -42.67564,76.60571 -81.0957,102.62109 -38.36922,25.98095 -81.19925,38.85937 -129.89063,38.85937 -59.10684,0 -105.96533,-18.57666 -143.68359,-56.29492 -37.48668,-37.48668 -56.02149,-84.70177 -56.02149,-144.77734 0,-43.73038 10.13846,-84.26039 30.58594,-122.38281 20.41495,-38.06178 47.48979,-66.38831 81.79492,-86.01563 a 14.073351,14.073351 0 0 0 0.0449,-0.0273 c 34.47947,-19.8986 72.5426,-29.82617 115.16407,-29.82617 49.01141,0 86.72503,14.74727 116.32031,44.50976 a 14.073351,14.073351 0 0 0 0.0566,0.0566 c 29.84711,29.67942 44.50977,66.58373 44.50976,113.85938 0,28.41364 -6.05278,54.85689 -18.26367,79.95703 a 14.073351,14.073351 0 0 0 -0.0176,0.0352 c -12.13205,25.11846 -27.1798,43.76589 -45.06836,56.78124 -0.006,0.005 -0.0132,0.009 -0.0195,0.0137 -18.7128,13.5586 -33.18166,18.90625 -40.38281,18.90625 -2.8902,0 -4.06079,-0.51417 -5.88281,-2.20703 -1.77973,-1.91787 -2.1875,-2.97548 -2.1875,-5.31836 0,-6.68056 2.42228,-20.28616 7.88867,-38.625 a 14.073351,14.073351 0 0 0 0.0234,-0.082 l 50.02734,-171.67968 a 14.073351,14.073351 0 0 0 -14.08593,-17.99805 l -66.70313,2.73438 a 14.073351,14.073351 0 0 0 -10.49023,5.39257 c -0.71101,-0.779 -1.39608,-1.57928 -2.16602,-2.31054 -9.16944,-8.87323 -21.77868,-13.48243 -34.88086,-13.48242 -12.0741,0 -23.80911,3.0145 -34.35547,8.83398 -17.96214,9.58381 -34.23129,21.74342 -48.65429,36.36133 a 14.073351,14.073351 0 0 0 -0.0664,0.0684 c -14.10733,14.49383 -26.5358,30.88839 -37.26953,49.08789 -0.003,0.005 -0.007,0.0104 -0.01,0.0156 -10.7922,18.11844 -19.35847,37.58178 -25.6875,58.29492 a 14.073351,14.073351 0 0 0 -0.0254,0.0801 c -6.21814,20.79195 -9.33789,42.14828 -9.33789,63.90039 0,21.93035 4.83501,40.67468 16.42969,54.44336 a 14.073351,14.073351 0 0 0 0.17383,0.20117 c 11.14767,12.7402 26.75399,20.11719 43.39453,20.11719 11.2275,0 21.94992,-2.38473 31.41797,-7.35547 a 14.073351,14.073351 0 0 0 0.0703,-0.0371 c 13.24861,-7.05166 25.80126,-17.66707 38.08594,-31.51171 a 14.073351,14.073351 0 0 0 0.10156,-0.11524 c 1.85996,-2.143 3.88013,-4.75648 5.91406,-7.4043 2.71514,11.15918 8.33119,21.28441 16.72852,29.19727 12.7204,11.98654 30.56479,17.22656 50.92968,17.22656 30.53393,0 59.47965,-8.18214 85.7793,-24.19922 a 14.073351,14.073351 0 0 0 0.0254,-0.0156 c 26.95005,-16.49183 48.96269,-41.7513 66.0918,-74.65821 17.47598,-33.22328 26.19922,-70.09541 26.19922,-109.84179 0,-34.62738 -8.16059,-67.82747 -24.26953,-98.88086 C 638.5147,396.62478 613.4869,371.7526 581.00586,354.51758 548.62926,337.05905 510.98283,328.51172 468.82617,328.51172 Z M 460.07812,492.25 c -0.86687,-0.64581 1.54576,2.26268 0.89258,1.54688 2.24138,3.10344 4.44532,9.65839 4.44532,20.46484 0,15.6841 -3.0418,33.3852 -9.42383,53.05273 -0.002,0.005 -0.002,0.009 -0.004,0.0137 -6.42003,19.59823 -14.60409,37.30265 -24.52539,53.21094 -10.05739,16.1265 -19.3551,26.95996 -26.4082,32.35352 a 14.073351,14.073351 0 0 0 -0.0899,0.0703 c -2.64668,2.05854 -4.91236,3.1707 -6.28515,3.82227 -0.0386,-0.0468 -0.0278,-0.0378 -0.0703,-0.0899 -0.80639,-1.0849 -2.09766,-4.04437 -2.09766,-10.11914 0,-23.12623 8.56973,-56.84053 26.75586,-99.45312 10.07971,-23.51576 19.59455,-39.86689 26.87304,-48.16993 5.15755,-5.8516 8.1958,-6.70312 9.9375,-6.70312 z" />
    </g>
  </g>
</svg>
