<?xml version="1.0" encoding="UTF-8" standalone="no"?>
<svg
   xmlns:dc="http://purl.org/dc/elements/1.1/"
   xmlns:cc="http://creativecommons.org/ns#"
   xmlns:rdf="http://www.w3.org/1999/02/22-rdf-syntax-ns#"
   xmlns:svg="http://www.w3.org/2000/svg"
   xmlns="http://www.w3.org/2000/svg"
   xmlns:sodipodi="http://sodipodi.sourceforge.net/DTD/sodipodi-0.dtd"
   xmlns:inkscape="http://www.inkscape.org/namespaces/inkscape"
   sodipodi:docname="dataWrangling.svg"
   inkscape:version="1.0 (4035a4fb49, 2020-05-01)"
   id="svg8"
   version="1.1"
   viewBox="0 0 512 512"
   height="512"
   width="512">
  <defs
     id="defs2">
    <clipPath
       id="clipPath28"
       clipPathUnits="userSpaceOnUse">
      <rect
         y="472.88971"
         x="110.10663"
         height="86.873116"
         width="91.923882"
         id="rect30"
         style="fill:#000000" />
    </clipPath>
  </defs>
  <sodipodi:namedview
     inkscape:snap-global="false"
     inkscape:document-rotation="0"
     inkscape:pagecheckerboard="false"
     inkscape:window-maximized="1"
     inkscape:window-y="-6"
     inkscape:window-x="-6"
     inkscape:window-height="938"
     inkscape:window-width="1500"
     units="px"
     showgrid="true"
     inkscape:current-layer="layer1"
     inkscape:document-units="px"
     inkscape:cy="522.50807"
     inkscape:cx="393.3987"
     inkscape:zoom="0.49497475"
     inkscape:pageshadow="2"
     inkscape:pageopacity="0.0"
     borderopacity="1.0"
     bordercolor="#666666"
     pagecolor="#ffffff"
     id="base">
    <inkscape:grid
       spacingy="20"
       spacingx="20"
       id="grid1358"
       type="xygrid" />
  </sodipodi:namedview>
  <metadata
     id="metadata5">
    <rdf:RDF>
      <cc:Work
         rdf:about="">
        <dc:format>image/svg+xml</dc:format>
        <dc:type
           rdf:resource="http://purl.org/dc/dcmitype/StillImage" />
        <dc:title></dc:title>
      </cc:Work>
    </rdf:RDF>
  </metadata>
  <g
     transform="translate(0,-11.25001)"
     id="layer1"
     inkscape:groupmode="layer"
     inkscape:label="Layer 1">
    <path
       d="m 211.34138,11.254268 c -16.3032,-0.0772 -32.98618,0.89334 -49.6729,3.0146 -33.78224,4.29452 -56.69207,10.6663 -80.572981,22.41007 -20.855524,10.256 -35.939717,23.29467 -43.030451,37.19367 -4.516923,8.85382 -4.674435,13.70713 -4.674435,144.167502 V 353.0449 l 6.64871,10.48463 c 16.360331,25.79757 57.982472,46.11767 111.516857,54.44277 11.36762,1.76776 28.6155,2.85917 46.5879,3.22892 a 159.39387,151.30281 0 0 1 -1.44551,-16.35739 c -16.93491,-0.34432 -33.03513,-1.44011 -44.27727,-3.30715 -27.49411,-4.56604 -60.187203,-15.86189 -76.30373,-26.3633 -16.447435,-10.71703 -21.203165,-15.87453 -25.341754,-27.47873 -3.732784,-10.46641 -4.445874,-41.81574 -0.999653,-43.94563 1.309955,-0.8096 5.589172,1.22821 9.510002,4.52738 20.891677,17.57918 67.979935,32.28478 117.774465,36.78223 9.85026,0.88967 19.93481,1.30239 30.07407,1.30314 a 159.39387,151.30281 0 0 1 8.12395,-16.96125 c -17.90264,0.70756 -34.19799,0.81989 -39.49647,-0.10793 -3.20919,-0.56195 -13.71333,-2.17815 -23.34088,-3.59188 -51.19677,-7.51772 -96.072385,-31.79106 -102.667038,-55.53159 -1.283558,-4.62075 -2.339635,-18.11717 -2.346604,-29.99116 -0.01391,-23.04311 1.981781,-26.32059 10.378245,-17.04259 2.262511,2.50004 12.723414,8.75213 23.24702,13.89345 69.159407,33.78794 185.647327,33.78794 254.806727,0 10.52361,-5.14132 20.98608,-11.39341 23.24859,-13.89345 8.39646,-9.278 10.39226,-6.00052 10.37824,17.04259 -0.002,3.4253 -0.0425,6.5517 -0.13298,9.43178 a 159.39387,151.30281 0 0 1 14.15003,1.73337 v -33.63465 c 0,-130.128632 -0.15796,-134.982802 -4.67444,-143.835852 -19.15554,-37.54796 -88.91592,-62.2466 -167.46771,-62.61834 z m -0.48027,16.29482 c 60.28893,0.43303 118.39916,16.53188 144.36461,42.24043 16.77883,16.61263 16.80401,32.740012 0.0751,49.785542 -16.83069,17.1492 -45.32447,29.45585 -86.18136,37.22339 -19.16848,3.64423 -77.8699,6.44441 -92.1918,4.39753 C 114.66578,152.29758 81.363821,140.1348 60.636245,118.72402 44.890583,102.45939 45.229896,86.043958 61.646849,69.789518 80.48292,51.139878 115.93951,37.356968 162.05801,30.756118 c 14.12019,-2.02101 28.57549,-3.06011 42.96319,-3.19921 1.94833,-0.0188 3.8951,-0.0218 5.83991,-0.008 z M 49.722974,134.56673 c 1.28071,0 7.319027,3.57942 13.419443,7.95341 25.260043,18.11144 64.797763,30.06006 113.832173,34.40121 68.36425,6.05245 139.69785,-7.83085 176.75556,-34.40121 6.10044,-4.374 12.14033,-7.95341 13.42101,-7.95341 3.06789,0 3.03105,40.55831 -0.0469,51.63935 -2.85416,10.27537 -20.33604,27.28685 -36.40833,35.43059 -17.17283,8.70133 -48.14245,17.44042 -75.87977,21.41041 C 196.9409,251.33067 127.34091,242.49351 86.178272,221.63667 70.105951,213.49293 52.624127,196.48145 49.769936,186.20608 46.692038,175.12504 46.655233,134.56673 49.723006,134.56673 Z M 374.63526,271.73978 c -26.99074,-0.0598 -33.61736,0.54361 -47.41234,4.31306 -44.8587,12.25757 -75.56382,35.48297 -87.87092,66.4652 -5.76029,14.50108 -6.30417,47.35105 -1.04189,62.9672 3.39514,10.07537 3.38891,10.25895 -0.45524,13.84026 -6.8023,6.33741 -10.14606,14.90345 -9.03911,23.15629 1.3482,10.05166 6.36467,16.40101 17.47594,22.11908 7.6878,3.95625 11.79087,4.6979 25.98785,4.6979 h 16.858 l 1.93829,7.19938 c 2.60552,9.67609 -0.47298,20.58032 -7.90961,28.01688 -5.43903,5.43909 -5.66666,6.22593 -3.60908,12.46046 2.62117,7.94223 3.6771,8.11362 11.15731,1.81941 13.45317,-11.32009 19.19686,-29.31744 14.7664,-46.26877 -2.57153,-9.83876 -2.5014,-10.46714 1.86633,-16.90336 2.49512,-3.67671 4.5352,-7.69607 4.5352,-8.93118 0,-1.58056 6.05312,-2.27604 20.44205,-2.34973 91.95145,-0.47033 161.56555,-56.74099 143.38373,-115.90031 -7.54899,-24.56264 -25.9558,-41.99491 -54.38488,-51.50795 -14.10907,-4.72123 -17.77568,-5.12974 -46.68803,-5.19382 z m 4.1003,14.35809 c 10.28359,-0.003 19.78191,0.79799 26.9218,2.4827 46.47902,10.96715 69.4985,47.1633 52.42469,82.43306 -10.02405,20.70693 -43.47643,42.83995 -78.69257,52.06487 -10.21115,2.67478 -23.71013,4.30581 -41.0593,4.96229 l -25.84706,0.97775 -4.00956,-6.48601 c -2.20498,-3.56772 -7.68852,-8.59341 -12.18513,-11.16827 -7.04458,-4.03384 -10.48394,-4.66647 -24.86461,-4.56493 l -16.68905,0.1189 -3.02555,-10.40328 c -2.09521,-7.20721 -2.77132,-15.21968 -2.20112,-26.08328 1.96994,-37.53247 27.98462,-63.36067 78.5377,-77.97451 14.22774,-4.11294 33.55044,-6.35374 50.68976,-6.35929 z m -105.16851,134.9954 c 5.65605,0.0614 13.26432,2.18273 17.35392,5.23606 3.83356,2.8622 4.79802,5.22946 4.79802,11.77526 0,4.50635 -0.85489,8.43721 -1.90075,8.73406 -1.04587,0.29684 -7.86561,-4.93538 -15.15437,-11.62664 -10.8853,-9.99303 -12.65288,-12.39573 -9.89953,-13.4523 1.24865,-0.47917 2.91736,-0.6869 4.80271,-0.66644 z m -24.70191,9.49906 c 1.96554,-0.11332 4.89021,2.4687 12.753,9.91518 6.72842,6.37215 12.23363,12.27846 12.23363,13.12533 0,1.49774 -6.63359,1.88178 -10.45959,0.60543 -1.04587,-0.34883 -4.2763,-1.1596 -7.17904,-1.80062 -10.99951,-2.42904 -16.20198,-13.15849 -9.80724,-20.2246 0.87036,-0.96174 1.56581,-1.56921 2.45924,-1.62072 z"
       style="fill:#000000;stroke-width:2.33395"
       id="path17685" />
  </g>
</svg>
