<?xml version="1.0" encoding="UTF-8" standalone="no"?>
<svg
   xmlns:dc="http://purl.org/dc/elements/1.1/"
   xmlns:cc="http://creativecommons.org/ns#"
   xmlns:rdf="http://www.w3.org/1999/02/22-rdf-syntax-ns#"
   xmlns:svg="http://www.w3.org/2000/svg"
   xmlns="http://www.w3.org/2000/svg"
   xmlns:sodipodi="http://sodipodi.sourceforge.net/DTD/sodipodi-0.dtd"
   xmlns:inkscape="http://www.inkscape.org/namespaces/inkscape"
   sodipodi:docname="fund.svg"
   inkscape:version="1.0 (4035a4fb49, 2020-05-01)"
   id="svg8"
   version="1.1"
   viewBox="0 0 512 512"
   height="512"
   width="512">
  <defs
     id="defs2" />
  <sodipodi:namedview
     inkscape:snap-global="false"
     inkscape:document-rotation="0"
     inkscape:pagecheckerboard="false"
     inkscape:window-maximized="1"
     inkscape:window-y="-6"
     inkscape:window-x="-6"
     inkscape:window-height="938"
     inkscape:window-width="1500"
     units="px"
     showgrid="true"
     inkscape:current-layer="layer1"
     inkscape:document-units="px"
     inkscape:cy="455.95455"
     inkscape:cx="229.98213"
     inkscape:zoom="0.49497475"
     inkscape:pageshadow="2"
     inkscape:pageopacity="0.0"
     borderopacity="1.0"
     bordercolor="#666666"
     pagecolor="#ffffff"
     id="base">
    <inkscape:grid
       spacingy="20"
       spacingx="20"
       id="grid1358"
       type="xygrid" />
  </sodipodi:namedview>
  <metadata
     id="metadata5">
    <rdf:RDF>
      <cc:Work
         rdf:about="">
        <dc:format>image/svg+xml</dc:format>
        <dc:type
           rdf:resource="http://purl.org/dc/dcmitype/StillImage" />
        <dc:title></dc:title>
      </cc:Work>
    </rdf:RDF>
  </metadata>
  <g
     transform="translate(0,-11.25001)"
     id="layer1"
     inkscape:groupmode="layer"
     inkscape:label="Layer 1">
    <path
       sodipodi:nodetypes="sssscccscssssssssccccccsssssssssccssssssssssssssssscssssssssscsssssssssscscccssccccssccccc"
       d="m 280.51575,11.250592 c -23.33974,0.0651 -48.59473,5.56176 -64.13154,15.04545 -24.73691,15.09948 -45.78484,40.62345 -55.19514,66.9215 -8.1246,22.705078 -7.89971,59.264978 0.50241,81.362978 15.19642,39.9674 44.42664,66.45542 86.16256,78.08131 l 16.41904,4.57511 0.54516,56.42442 c 0.27297,31.03484 -0.31628,56.95452 -1.36825,57.60028 -0.43763,0.26872 -6.56513,-4.00688 -13.24961,-8.8135 -3.22453,-2.52393 -5.34678,-4.14772 -10.75362,-8.47674 -14.38222,-11.51503 -16.32888,-14.15844 -17.03369,-23.07861 -1.15933,-14.6732 -16.81103,-49.03722 -28.84022,-63.32447 -30.47897,-36.20043 -75.30856,-56.91001 -114.772952,-53.02516 -2.159616,0.21263 -4.073175,0.47377 -5.756285,0.82309 -11.781547,2.44504 -12.232939,9.26209 -6.114383,34.73547 9.636391,40.11974 28.813563,67.50558 61.84934,88.3325 19.75775,12.45593 51.6633,22.53834 70.08558,22.14861 4.90154,-0.10372 10.83383,2.8304 16.91345,7.79683 0,0 28.27672,22.33728 37.02032,29.0605 l 5.76163,4.6927 c 4.31485,8.33682 5.62802,121.11715 5.62802,121.11715 h 25.99147 l 23.90702,-31.2667 c 18.72144,-24.4855 25.7073,-31.6566 32.20207,-33.0626 18.00926,-3.8986 46.69436,-21.1108 63.01982,-37.814 27.29682,-27.92861 39.59009,-59.02263 39.64728,-100.28339 0.0416,-29.94042 -2.59727,-34.1854 -19.79691,-31.82793 -39.28781,5.38498 -78.08114,35.93737 -99.32131,78.2256 -8.3829,16.68996 -15.6253,53.74842 -13.34581,68.28972 1.38574,8.8401 0.10193,11.8632 -11.21327,26.4031 -7.02771,9.0304 -13.27839,16.9303 -13.89098,17.5574 -0.61262,0.6271 -1.11705,-49.3931 -1.11705,-111.15988 V 256.00765 l 13.56441,-0.45645 c 17.42946,-4.36008 40.74684,-17.29979 55.40946,-30.20633 71.98601,-63.36465 43.41649,-185.744688 -49.1823,-210.678978 -8.72776,-2.35014 -18.93675,-3.44491 -29.54572,-3.4153 z m -3.91235,25.59598 c 1.77774,0.0306 3.59549,0.0933 5.45698,0.18717 38.61132,1.947 66.04731,19.69265 82.68314,53.48481 8.15309,16.561288 8.98984,20.578178 8.98984,42.955698 0,20.95442 -1.08897,27.00976 -7.21004,40.06416 -10.1406,21.62683 -24.6177,36.47017 -45.69754,46.85198 -15.16611,7.4693 -21.67846,9.03458 -40.06418,9.63658 -32.87743,1.07655 -54.51252,-7.99867 -76.15186,-31.95085 -36.57019,-40.4788 -33.02703,-99.391908 8.24694,-137.113978 19.47144,-17.7958 37.08061,-24.57495 63.74672,-24.11547 z m 1.35222,5.01336 c -7.44259,0 -12.31428,5.00589 -12.31428,12.65101 0,4.52008 -2.44677,6.88926 -9.54037,9.23035 -5.24941,1.73248 -13.25369,7.64804 -17.78729,13.14806 -6.74973,8.18859 -8.24446,12.49309 -8.23625,23.746698 0.0192,25.83238 14.32669,39.14043 44.90117,41.76914 19.90798,1.71166 23.50082,4.08711 23.50082,15.54249 0,13.66201 -3.61006,15.26459 -34.44685,15.26459 -22.94925,0 -28.97904,0.88343 -34.07272,5.00803 -4.68167,3.79102 -5.76063,6.71101 -4.43614,11.98825 1.99081,7.93207 8.13776,10.27693 27.11922,10.33138 10.97635,0.0315 12.99841,0.85333 12.99841,5.28595 0,2.88707 0.74863,7.19707 1.66221,9.57777 1.9624,5.11399 14.92737,5.79954 19.68468,1.04223 1.80609,-1.80609 3.29732,-6.42395 3.31374,-10.2619 0.0222,-5.52454 2.27368,-7.92019 10.82844,-11.51257 14.29535,-6.00305 21.96154,-18.74203 21.96154,-36.50993 0,-16.01251 -6.95743,-29.32134 -18.33246,-35.0722 -4.20552,-2.12618 -15.39007,-4.536 -24.85304,-5.35542 -19.861,-1.71982 -25.21114,-5.08339 -25.21114,-15.85251 0,-11.987948 8.61522,-16.237308 32.90222,-16.237308 21.28507,0 27.30093,-2.49126 27.30093,-11.29879 0,-7.18232 -7.6599,-13.32977 -16.61145,-13.32977 -6.53815,0 -8.01711,-1.16127 -8.01711,-6.2961 0,-7.84179 -4.80618,-12.85945 -12.31428,-12.85945 z M 90.948493,238.87774 l 18.011777,3.80547 c 37.69657,7.96477 70.64833,38.48309 82.85416,73.71466 l 5.88456,18.63176 -6.82523,-0.39018 c -3.75274,-0.21262 -12.48994,-2.0544 -19.41744,-4.09406 C 151.64829,324.71335 139.122,317.43503 123.95227,302.93981 107.13973,286.87479 96.200539,267.93849 93.022253,251.19202 Z m 332.041987,76.60616 0.83913,12.46395 c 0.79711,17.02674 -5.44251,37.97962 -18.06522,57.50942 -11.38931,17.62146 -21.8845,27.61144 -39.79694,37.88354 -6.26455,3.5924 -14.33615,7.4145 -17.93693,8.4928 l -6.54198,1.9615 1.38963,-19.48693 c 3.69144,-37.10282 28.66267,-74.43516 63.4795,-90.93542 z"
       style="fill:#000000;stroke-width:2.73651"
       id="path38" />
  </g>
</svg>
