<?xml version="1.0" encoding="UTF-8" standalone="no"?>
<!-- Created with Inkscape (http://www.inkscape.org/) -->

<svg
   xmlns:dc="http://purl.org/dc/elements/1.1/"
   xmlns:cc="http://creativecommons.org/ns#"
   xmlns:rdf="http://www.w3.org/1999/02/22-rdf-syntax-ns#"
   xmlns:svg="http://www.w3.org/2000/svg"
   xmlns="http://www.w3.org/2000/svg"
   xmlns:sodipodi="http://sodipodi.sourceforge.net/DTD/sodipodi-0.dtd"
   xmlns:inkscape="http://www.inkscape.org/namespaces/inkscape"
   width="500"
   height="500"
   viewBox="0 0 500 500"
   version="1.1"
   id="svg8"
   inkscape:version="0.92.4 (5da689c313, 2019-01-14)"
   sodipodi:docname="print.svg">
  <defs
     id="defs2" />
  <sodipodi:namedview
     id="base"
     pagecolor="#ffffff"
     bordercolor="#666666"
     borderopacity="1.0"
     inkscape:pageopacity="0.0"
     inkscape:pageshadow="2"
     inkscape:zoom="0.53687737"
     inkscape:cx="395.05243"
     inkscape:cy="425.34052"
     inkscape:document-units="px"
     inkscape:current-layer="layer1"
     showgrid="true"
     units="px"
     inkscape:window-width="3000"
     inkscape:window-height="1890"
     inkscape:window-x="-12"
     inkscape:window-y="-12"
     inkscape:window-maximized="1"
     inkscape:pagecheckerboard="false"
     inkscape:snap-grids="false">
    <inkscape:grid
       type="xygrid"
       id="grid1358"
       spacingx="20"
       spacingy="20" />
  </sodipodi:namedview>
  <metadata
     id="metadata5">
    <rdf:RDF>
      <cc:Work
         rdf:about="">
        <dc:format>image/svg+xml</dc:format>
        <dc:type
           rdf:resource="http://purl.org/dc/dcmitype/StillImage" />
        <dc:title></dc:title>
      </cc:Work>
    </rdf:RDF>
  </metadata>
  <g
     inkscape:label="Layer 1"
     inkscape:groupmode="layer"
     id="layer1"
     transform="translate(0,-591.25001)">
    <path
       style="fill:#000000;stroke-width:0.99999994"
       d="m 103.02517,627.24912 c -0.31908,34.54944 0.62891,69.75974 -0.45807,103.89768 -22.214159,1.1603 -45.229661,-1.41664 -67.032169,4.27599 -22.61448,9.38413 -36.07311529,34.33572 -35.49507699,58.28142 0.018566,50.585 -0.441602,101.23301 1.35150839,151.8611 8.7978156,16.05701 20.4704096,33.88136 39.7466096,37.73226 20.164612,5.64015 41.348391,3.69149 61.940198,5.0901 -0.66172,21.30593 0.60475,42.68853 -0.265,63.91083 0.3576,5.9781 7.87919,4.8923 11.84179,4.6735 94.0453,0 188.09059,0 282.13589,0 0,-23.0185 0,-46.0371 0,-69.05565 26.1719,-0.17027 55.1078,2.63103 78.10734,-12.5005 13.87433,-9.02518 23.15128,-24.85187 22.96602,-41.55403 2.62859,-33.20554 1.2299,-66.56493 2.11339,-99.83568 -0.0709,-19.6956 0.62257,-39.63281 -2.38013,-59.12568 -5.91412,-21.109 -23.58578,-41.01687 -46.6346,-42.16555 -17.24006,-1.68164 -34.73275,-0.88013 -51.87408,-1.53133 -5.02825,1.51746 -1.06681,-6.02074 -2.29794,-8.77344 0,-32.37311 0,-64.74622 0,-97.11932 -97.92189,0 -195.84378,0 -293.76568,0 v 0.96915 z m 146.95098,48.0429 c 32.27215,0 64.54431,0 96.81646,0 -0.35523,18.23274 -0.71045,36.46549 -1.06568,54.69824 -63.9983,0.0553 -128.01222,1.80941 -191.99937,-0.10979 -0.99473,-18.1426 -0.68381,-36.38477 -0.71362,-54.58845 32.32074,0 64.64148,0 96.96221,0 z M 83.013761,778.56884 c 119.831539,0.39918 239.663739,-0.008 359.495549,0.14575 4.00766,3.54227 9.90173,7.65742 7.7229,13.85959 0,46.07179 0,92.14359 0,138.21538 -4.38342,6.02049 -12.09587,8.2657 -19.22775,7.12477 -11.40265,0.29099 -22.80914,0.0703 -34.21361,0.106 0,-22.97564 0,-45.95129 0,-68.92693 -97.92189,0 -195.84378,0 -293.76568,0 0,22.92516 0,45.85033 0,68.7755 -16.171393,-0.56941 -32.5872,2.3911 -48.103476,-2.14651 -5.101561,-2.72035 -6.585056,-8.78377 -5.335126,-14.06591 0.176432,-45.10196 -0.374726,-90.33878 0.283059,-135.35716 3.472482,-3.87217 6.777808,-9.64993 13.07023,-7.80822 6.691302,0.0259 13.382603,0.0519 20.073904,0.0777 z m 10.255563,21.60521 c -17.861809,-1.41924 -30.19354,21.87198 -20.213946,36.27872 8.893625,16.33432 36.650332,14.62622 43.348592,-2.76549 6.53205,-13.86822 -3.46185,-33.54612 -19.602553,-33.46592 -1.176252,-0.0642 -2.354643,-0.049 -3.532093,-0.0473 z M 249.90801,917.84424 c 31.9226,0 63.8452,0 95.76781,0 0.37794,29.71552 0.75588,59.43103 1.13383,89.14656 -64.60109,0 -129.20219,0 -193.80328,0 0.37795,-29.71553 0.75589,-59.43104 1.13383,-89.14656 31.92261,0 63.84521,0 95.76781,0 z"
       id="path839"
       inkscape:connector-curvature="0" />
  </g>
</svg>
