<?xml version="1.0" encoding="UTF-8" standalone="no"?>
<svg
   xmlns:dc="http://purl.org/dc/elements/1.1/"
   xmlns:cc="http://creativecommons.org/ns#"
   xmlns:rdf="http://www.w3.org/1999/02/22-rdf-syntax-ns#"
   xmlns:svg="http://www.w3.org/2000/svg"
   xmlns="http://www.w3.org/2000/svg"
   xmlns:sodipodi="http://sodipodi.sourceforge.net/DTD/sodipodi-0.dtd"
   xmlns:inkscape="http://www.inkscape.org/namespaces/inkscape"
   sodipodi:docname="projects.svg"
   inkscape:version="1.0 (4035a4fb49, 2020-05-01)"
   id="svg8"
   version="1.1"
   viewBox="0 0 512 512"
   height="512"
   width="512">
  <defs
     id="defs2" />
  <sodipodi:namedview
     inkscape:snap-global="false"
     inkscape:document-rotation="0"
     inkscape:pagecheckerboard="false"
     inkscape:window-maximized="1"
     inkscape:window-y="-6"
     inkscape:window-x="-6"
     inkscape:window-height="938"
     inkscape:window-width="1500"
     units="px"
     showgrid="true"
     inkscape:current-layer="layer1"
     inkscape:document-units="px"
     inkscape:cy="455.95455"
     inkscape:cx="229.98213"
     inkscape:zoom="0.49497475"
     inkscape:pageshadow="2"
     inkscape:pageopacity="0.0"
     borderopacity="1.0"
     bordercolor="#666666"
     pagecolor="#ffffff"
     id="base">
    <inkscape:grid
       spacingy="20"
       spacingx="20"
       id="grid1358"
       type="xygrid" />
  </sodipodi:namedview>
  <metadata
     id="metadata5">
    <rdf:RDF>
      <cc:Work
         rdf:about="">
        <dc:format>image/svg+xml</dc:format>
        <dc:type
           rdf:resource="http://purl.org/dc/dcmitype/StillImage" />
        <dc:title></dc:title>
      </cc:Work>
    </rdf:RDF>
  </metadata>
  <g
     transform="translate(0,-11.25001)"
     id="layer1"
     inkscape:groupmode="layer"
     inkscape:label="Layer 1">
    <path
       sodipodi:nodetypes="cscsssssssssssscsscccccsccccccccccccssssscccccssssssssscccccssssssssssssccccccccccssscssssscsssscssssscssscscsssscssssscsssscsssssscssssssssssssssscccsssssssssssssscccssssssssssscccssssssssscc"
       id="path77"
       d="m 203.90579,521.49158 c -5.58219,-3.42962 -6.1106,-5.67835 -6.1106,-26.00497 v -18.28636 l -3.2288,-1.16749 c -1.77583,-0.64215 -4.28611,-2.29249 -5.57841,-3.6674 -2.28923,-2.43559 -2.36631,-3.04039 -2.99842,-23.52388 -1.11913,-36.26555 -6.73062,-59.61806 -21.34533,-88.82981 -5.60444,-11.20207 -8.78398,-16.30037 -20.03005,-32.11751 -9.49054,-13.34805 -16.94292,-27.4083 -20.82755,-39.29485 -16.36365,-50.071 -4.81514,-102.57854 30.90737,-140.52638 49.54713,-52.633681 130.8541,-58.529521 187.86613,-13.62279 38.66865,30.45818 58.76299,80.59704 51.61986,128.80048 -3.52847,23.81089 -10.94809,42.22514 -25.06807,62.21479 -16.796,23.7781 -25.84554,40.6854 -32.45458,60.63505 -7.38895,22.30388 -9.85362,37.02198 -10.67142,63.72573 l -0.6146,20.06846 -2.80428,2.92571 c -1.54237,1.60911 -4.02795,3.19445 -5.52352,3.52295 l -2.71922,0.59723 -0.29745,19.8068 -0.29745,19.8068 -3.1711,3.16942 -3.1711,3.16951 -50.18774,0.25331 c -48.44409,0.24458 -50.29566,0.18705 -53.29367,-1.6548 z m 87.02483,-33.03921 v -11.64193 h -34.92579 -34.92578 v 11.64193 11.64193 h 34.92578 34.92579 z m -46.80103,-82.08802 -0.25177,-47.16229 -5.59802,-1.73191 c -18.30063,-5.66184 -33.64845,-22.07872 -38.54706,-41.2321 -7.96389,-31.1385 11.87289,-63.28609 43.66,-70.75563 30.85715,-7.251 62.73624,13.47902 69.49125,45.18809 5.96645,28.00743 -11.12438,57.54182 -38.4461,66.43814 l -6.30605,2.05333 -0.25176,47.18233 -0.25178,47.18227 h 17.47213 17.47212 l 0.0168,-6.54858 c 0.0206,-8.0212 1.43686,-22.05012 3.40344,-33.71304 5.86513,-34.78349 20.89629,-69.80969 41.92338,-97.69147 26.10471,-34.61465 31.68859,-78.96232 14.85656,-117.992 -13.36264,-30.98491 -40.2423,-54.90362 -73.29736,-65.22322 -22.71117,-7.0903 -50.9408,-6.14324 -73.84348,2.4773 -45.6062,17.16614 -76.04632,60.85165 -76.04632,109.13634 0,26.8786 7.90752,49.14735 26.22402,73.85083 16.16807,21.80587 29.56562,49.92086 36.27114,76.1156 4.29386,16.77376 7.33389,38.31465 7.34845,52.0695 l 0.008,7.51874 h 17.47212 17.47213 z m 25.73958,-72.01705 c 6.38662,-2.82478 14.67021,-10.92672 17.89734,-17.50488 2.35677,-4.80402 2.66676,-6.52832 2.63573,-14.66086 -0.0281,-7.37261 -0.46053,-10.1464 -2.16127,-13.86434 -2.94943,-6.44765 -11.04903,-14.69568 -17.57527,-17.89734 -4.7799,-2.34494 -6.56915,-2.6709 -14.66087,-2.6709 -8.06376,0 -9.88855,0.32985 -14.5895,2.63714 -6.85867,3.36634 -13.83959,10.34726 -17.20593,17.20594 -2.31908,4.72493 -2.6329,6.48459 -2.60197,14.5895 0.0414,10.85391 1.84256,15.78608 8.33834,22.83317 5.29561,5.74505 8.42798,7.9333 14.677,10.25321 6.69075,2.4839 18.52467,2.05236 25.2464,-0.92064 z M 244.3629,302.18156 v -11.64193 h 11.64193 11.64193 v 11.64193 11.64193 H 256.00483 244.3629 Z M 124.18563,435.05569 c -3.11332,-1.29584 -17.71368,-12.69052 -24.756044,-19.32057 -17.376257,-16.3589 -33.987591,-36.34108 -35.088355,-42.20862 -0.507928,-2.70753 0.935807,-6.44805 9.336448,-24.18947 l 9.937298,-20.98668 -4.172418,-9.93138 c -2.294838,-5.46225 -4.872342,-10.64431 -5.7278,-11.51569 -0.855459,-0.87138 -11.028749,-4.72034 -22.607316,-8.55323 -11.578568,-3.8329 -22.106344,-7.7983 -23.395077,-8.81203 -4.508996,-3.54677 -4.626599,-4.82944 -4.335289,-47.28106 l 0.274264,-39.96636 2.910483,-2.84189 c 2.290365,-2.23639 7.457984,-4.32932 24.254018,-9.82308 11.738944,-3.83965 22.043458,-7.69853 22.898917,-8.5753 0.855458,-0.87676 3.433816,-6.06522 5.729682,-11.52991 l 4.17431,-9.93579 -9.269274,-19.65411 c -10.515854,-22.29728 -10.749236,-22.92093 -9.877449,-26.39441 1.93157,-7.69599 29.946406,-38.319921 47.606082,-52.039761 10.75296,-8.35399 14.03097,-10.03644 17.76797,-9.11939 1.3548,0.33246 11.30761,4.79047 22.11736,9.90668 l 19.65411,9.30219 9.93579,-4.17431 c 5.46469,-2.29587 10.65315,-4.87423 11.52991,-5.72968 0.87676,-0.85546 4.74168,-11.15998 8.58869,-22.89892 3.84702,-11.738947 7.86594,-22.290725 8.93095,-23.448389 3.81978,-4.152142 5.29811,-4.277351 47.1135,-3.990378 l 39.96297,0.274265 2.68914,2.670193 c 2.06252,2.047999 4.39453,7.794222 10.008,24.660279 4.02539,12.09455 7.95454,22.33876 8.73145,22.7649 0.77691,0.42616 6.101,2.73331 11.8313,5.12701 l 10.41872,4.35218 13.35022,-6.36339 c 28.44426,-13.55801 28.52401,-13.58736 32.64916,-12.01898 4.91304,1.86794 22.18433,16.09699 33.78292,27.83226 12.57891,12.72714 25.51355,28.966901 26.44336,33.200251 0.7346,3.34465 -0.69178,7.044 -10.99528,28.5164 l -7.80335,16.26213 4.35156,10.41729 c 2.39337,5.72951 4.69255,11.04074 5.10928,11.80273 0.41674,0.762 10.55282,4.62198 22.52462,8.57774 17.06756,5.63951 22.39526,7.80531 24.67738,10.03177 l 2.91049,2.83948 0.25625,40.48638 c 0.24575,38.82504 0.17784,40.61383 -1.65488,43.5923 -2.53459,4.11915 -4.02103,4.79844 -27.22111,12.43972 -10.93857,3.60278 -20.42654,6.97414 -21.08439,7.49191 -0.65786,0.51777 -1.59157,2.31301 -2.07492,3.98942 -0.48336,1.67641 -2.4242,6.61553 -4.313,10.97581 l -3.43416,7.9278 7.76691,16.32622 c 10.39403,21.8485 11.71073,25.27439 10.9846,28.58049 -1.68091,7.65314 -29.59769,38.32028 -47.65207,52.34675 -10.66366,8.28459 -14.04638,10.0397 -17.62119,9.1425 -3.23043,-0.81076 -36.42012,-17.14888 -37.21514,-18.31969 -0.79249,-1.16706 8.51955,-20.01296 9.8887,-20.01296 0.53634,0 6.70315,2.8703 13.70401,6.37844 8.35259,4.18548 13.43722,6.20064 14.78924,5.86131 5.70688,-1.43235 38.42514,-34.88425 38.42514,-39.28677 0,-0.95803 -3.92915,-9.98478 -8.73145,-20.05945 -5.31048,-11.14078 -8.73145,-19.52333 -8.73145,-21.39508 0,-1.69262 1.55489,-6.22369 3.45531,-10.06903 3.81886,-7.72716 4.24261,-8.73975 8.30971,-19.85738 1.55287,-4.24486 3.75441,-8.70893 4.89229,-9.92015 1.40391,-1.49439 8.88195,-4.46536 23.26586,-9.24337 l 21.19696,-7.04114 v -28.65278 -28.65277 l -21.19696,-7.04115 c -14.47765,-4.80914 -21.85794,-7.7447 -23.28207,-9.26063 -1.1468,-1.22071 -3.5576,-6.33964 -5.35731,-11.37538 -1.79973,-5.03576 -5.07483,-12.80593 -7.278,-17.26707 -2.20319,-4.46114 -4.01513,-9.48172 -4.02654,-11.15685 -0.0127,-1.87006 3.40577,-10.22419 8.85629,-21.6429 6.38677,-13.38012 8.71727,-19.23383 8.30748,-20.86659 -1.47494,-5.8766 -34.83032,-38.634141 -39.33923,-38.634141 -0.95803,0 -9.98478,3.92915 -20.05945,8.73145 -11.13727,5.3088 -19.52357,8.73144 -21.39417,8.73144 -1.69212,0 -6.72661,-1.8026 -11.18775,-4.00578 -4.46114,-2.20318 -12.2586,-5.47547 -17.32769,-7.27176 -6.01675,-2.13212 -10.05856,-4.19379 -11.64192,-5.93838 -1.64128,-1.80841 -4.60648,-9.3374 -9.1718,-23.28829 l -6.7464,-20.61591 h -28.7092 -28.7092 l -6.7464,20.61591 c -4.54142,13.87787 -7.5391,21.49661 -9.17179,23.3105 -1.60549,1.78368 -8.00081,5.05093 -18.91814,9.66492 -22.07566,9.32985 -21.12651,9.36297 -43.49836,-1.51798 -9.51721,-4.62887 -18.13116,-8.41612 -19.14212,-8.41612 -4.84855,0 -39.711469,34.797691 -39.711469,39.637181 0,0.97009 3.929151,10.00671 8.731446,20.08137 4.984293,10.45646 8.731443,19.56663 8.731443,21.22807 0,2.42218 -4.67332,14.63679 -13.316772,34.80586 -0.871844,2.0344 -2.752491,4.68116 -4.179209,5.88166 -1.501596,1.26351 -11.233743,5.0012 -23.109093,8.87519 l -20.515048,6.69244 v 28.69571 28.69572 l 20.588354,6.71635 c 14.102411,4.6005 21.445907,7.49202 23.310497,9.17854 3.243927,2.93413 16.330981,33.33197 16.931841,39.3283 0.33161,3.30925 -0.90407,6.58225 -8.392302,22.22911 -4.829634,10.09167 -8.781157,19.1422 -8.781157,20.11229 0,4.57545 34.784629,39.63718 39.323919,39.63718 0.7978,0 7.11351,-2.83772 14.03492,-6.30605 6.92141,-3.46832 13.02321,-6.30604 13.55955,-6.30604 1.37327,0 10.6791,18.84604 9.8887,20.02644 -0.98876,1.47665 -34.59268,17.77262 -37.70154,18.28302 -1.49849,0.24613 -3.76076,0.0165 -5.02727,-0.51108 z"
       style="fill:#000000;stroke-width:0.970161" />
  </g>
</svg>
