<?xml version="1.0" encoding="UTF-8" standalone="no"?>
<svg
   xmlns:dc="http://purl.org/dc/elements/1.1/"
   xmlns:cc="http://creativecommons.org/ns#"
   xmlns:rdf="http://www.w3.org/1999/02/22-rdf-syntax-ns#"
   xmlns:svg="http://www.w3.org/2000/svg"
   xmlns="http://www.w3.org/2000/svg"
   xmlns:sodipodi="http://sodipodi.sourceforge.net/DTD/sodipodi-0.dtd"
   xmlns:inkscape="http://www.inkscape.org/namespaces/inkscape"
   sodipodi:docname="training.svg"
   inkscape:version="1.0 (4035a4fb49, 2020-05-01)"
   id="svg8"
   version="1.1"
   viewBox="0 0 512 512"
   height="512"
   width="512">
  <defs
     id="defs2">
    <marker
       inkscape:stockid="Arrow2Send"
       orient="auto"
       refY="0.0"
       refX="0.0"
       id="marker21407"
       style="overflow:visible;"
       inkscape:isstock="true">
      <path
         id="path21405"
         style="fill-rule:evenodd;stroke-width:0.625;stroke-linejoin:round;stroke:#000000;stroke-opacity:1;fill:#000000;fill-opacity:1"
         d="M 8.7185878,4.0337352 L -2.2072895,0.016013256 L 8.7185884,-4.0017078 C 6.9730900,-1.6296469 6.9831476,1.6157441 8.7185878,4.0337352 z "
         transform="scale(0.3) rotate(180) translate(-2.3,0)" />
    </marker>
    <marker
       inkscape:isstock="true"
       style="overflow:visible;"
       id="Arrow1Send"
       refX="0.0"
       refY="0.0"
       orient="auto"
       inkscape:stockid="Arrow1Send">
      <path
         transform="scale(0.2) rotate(180) translate(6,0)"
         style="fill-rule:evenodd;stroke:#000000;stroke-width:1pt;stroke-opacity:1;fill:#000000;fill-opacity:1"
         d="M 0.0,0.0 L 5.0,-5.0 L -12.5,0.0 L 5.0,5.0 L 0.0,0.0 z "
         id="path21092" />
    </marker>
    <clipPath
       id="clipPath28"
       clipPathUnits="userSpaceOnUse">
      <rect
         y="472.88971"
         x="110.10663"
         height="86.873116"
         width="91.923882"
         id="rect30"
         style="fill:#000000" />
    </clipPath>
  </defs>
  <sodipodi:namedview
     inkscape:snap-global="false"
     inkscape:document-rotation="0"
     inkscape:pagecheckerboard="false"
     inkscape:window-maximized="1"
     inkscape:window-y="-6"
     inkscape:window-x="-6"
     inkscape:window-height="938"
     inkscape:window-width="1500"
     units="px"
     showgrid="true"
     inkscape:current-layer="layer1"
     inkscape:document-units="px"
     inkscape:cy="262.4885"
     inkscape:cx="339.09482"
     inkscape:zoom="0.7"
     inkscape:pageshadow="2"
     inkscape:pageopacity="0.0"
     borderopacity="1.0"
     bordercolor="#666666"
     pagecolor="#ffffff"
     id="base">
    <inkscape:grid
       spacingy="20"
       spacingx="20"
       id="grid1358"
       type="xygrid" />
  </sodipodi:namedview>
  <metadata
     id="metadata5">
    <rdf:RDF>
      <cc:Work
         rdf:about="">
        <dc:format>image/svg+xml</dc:format>
        <dc:type
           rdf:resource="http://purl.org/dc/dcmitype/StillImage" />
        <dc:title></dc:title>
      </cc:Work>
    </rdf:RDF>
  </metadata>
  <g
     transform="translate(0,-11.25001)"
     id="layer1"
     inkscape:groupmode="layer"
     inkscape:label="Layer 1">
    <path
       id="path21575"
       d="m 320.17245,488.30939 c 5.3032,-9.9091 -4.18213,-36.15656 -17.87578,-49.46527 -13.0909,-12.7229 -23.43753,-17.0291 -42.80412,-17.81473 -14.47062,-0.58702 -17.5818,-0.0908 -27.59122,4.40121 -6.20482,2.78456 -13.56839,7.44985 -16.3635,10.36729 l -5.08199,5.30446 -9.69856,-7.34305 c -12.7632,-9.66335 -23.28833,-13.03334 -40.63588,-13.01095 -16.32154,0.0211 -30.58561,5.39244 -41.00033,15.43938 l -6.02598,5.8132 -6.7379,-5.91596 C 92.612323,424.01681 85.710997,421.67154 63.943418,421.67154 c -18.392832,0 -20.476749,0.38954 -29.845448,5.57888 -13.108049,7.26056 -25.4690841,21.17691 -30.3153981,34.12983 -4.300694,11.49465 -5.069201,25.18964 -1.607769,28.65107 1.721459,1.72146 39.6159601,2.25983 159.0632571,2.25983 H 318.04147 Z M 16.905038,474.87164 c 0.172306,-9.80252 14.501238,-27.31899 26.32329,-32.17888 20.917855,-8.59902 38.040163,-4.84015 54.874603,12.04663 6.133829,6.15291 12.474069,11.18711 14.089439,11.18711 1.61534,0 5.19099,-2.68822 7.94585,-5.9738 14.57553,-17.38348 27.1748,-23.52586 44.57306,-21.7302 12.99927,1.34164 23.25903,6.79687 32.47585,17.26771 8.71918,9.90552 13.69455,10.78239 19.77788,3.48573 13.18097,-15.80994 23.37275,-21.21457 40.00533,-21.21457 18.71786,0 34.80089,9.65468 42.15884,25.30806 7.30624,15.54336 20.9407,14.1562 -139.1431,14.1562 -113.264524,0 -143.113779,-0.49108 -143.081042,-2.35399 z M 509.13944,411.511 c 2.94563,-3.25488 3.17647,-9.26977 2.61974,-68.26562 -0.59038,-62.56076 -0.7548,-65.05581 -4.98124,-75.58969 -9.83811,-24.52018 -36.38902,-44.24347 -62.02891,-46.078 -14.70479,-1.05212 -25.77962,1.43693 -77.94922,17.519 -18.3111,5.64465 -34.08473,10.26302 -35.05252,10.26302 -0.96778,0 -7.87946,-9.25563 -15.3593,-20.56808 -15.993,-24.18773 -17.71491,-25.93664 -27.49782,-27.92889 -7.02469,-1.43055 -8.53808,-3.13519 -27.21186,-30.65062 -14.6662,-21.61033 -20.89468,-29.29475 -24.11432,-29.75116 -5.75135,-0.81532 -10.274,3.16892 -9.31165,8.20314 0.42586,2.22776 9.15354,16.52092 19.39483,31.76259 18.46581,27.4818 18.62164,27.80908 18.75075,39.37741 0.12486,11.18295 0.77273,12.73063 15.6698,37.42924 16.87887,27.98437 24.32436,36.03357 36.31836,39.26323 7.44236,2.00401 17.01874,0.7663 38.86409,-5.02305 l 4.23718,-1.12292 v 58.72231 c 0,36.87746 0.7252,60.07736 1.94944,62.36489 1.87389,3.5014 4.67283,3.64258 72.21094,3.64258 66.57726,0 70.43085,-0.18719 73.49171,-3.56938 z m -128.8202,-71.33917 c 0,-51.11475 -0.42757,-60.4535 -2.93156,-64.02844 -3.71702,-5.30679 -6.31316,-5.2492 -29.61288,0.65697 -21.10294,5.34931 -28.7323,5.00287 -34.69793,-1.57563 -5.54508,-6.11477 -30.68348,-49.57705 -30.68348,-53.04933 0,-7.73605 7.03139,-0.84844 21.86231,21.41523 8.92577,13.39907 17.37585,24.80216 18.77796,25.3402 1.4021,0.53803 21.43257,-4.84032 44.51215,-11.95193 57.70117,-17.77965 64.7538,-19.47884 76.09078,-18.33238 17.7594,1.79593 33.75561,12.86642 43.18379,29.88622 l 5.54863,10.01641 0.56743,60.73285 0.56742,60.73287 h -56.59231 -56.59231 z m -110.63355,72.22171 c 17.51972,-6.25217 27.8054,-20.66789 27.73186,-38.86709 -0.0521,-12.89363 -4.94275,-23.86587 -13.94531,-31.28654 -17.16358,-14.14766 -37.79848,-12.91881 -54.00353,3.21605 -16.8032,16.73041 -16.78205,39.64402 0.0521,56.4782 12.08397,12.08399 25.68641,15.62621 40.16483,10.45938 z m -27.26282,-20.28553 c -2.91959,-2.03769 -6.09212,-6.78765 -7.36003,-11.01963 -5.67394,-18.9379 11.03571,-36.1105 29.27862,-30.08979 9.78516,3.22941 16.16874,11.74782 16.16874,21.57602 0,20.44207 -21.20407,31.31677 -38.08733,19.5334 z m -69.47193,20.14548 c 9.94928,-3.10269 20.13291,-12.34874 24.88753,-22.59617 10.82805,-23.33723 -5.37436,-52.71215 -31.2117,-56.5867 -23.26419,-3.48866 -46.18767,16.65146 -46.18767,40.5796 0,17.4397 13.19436,34.6896 30.28251,39.59042 8.20602,2.35345 12.06703,2.18199 22.22933,-0.98715 z m -21.82731,-16.89783 c -13.1903,-3.78353 -18.45659,-25.22212 -8.96621,-36.50077 5.56263,-6.61083 15.91888,-10.57378 22.99257,-8.79838 17.22534,4.32329 24.62189,24.5069 14.02572,38.27326 -3.55855,4.62321 -16.4086,10.0574 -21.07282,8.91153 -1.55364,-0.38168 -4.69431,-1.23021 -6.97926,-1.88564 z m -75.048368,17.01413 c 14.354496,-5.30568 23.687734,-15.46115 27.615728,-30.04862 6.41656,-23.8292 -15.013916,-50.18951 -40.689167,-50.04926 -6.876633,0.0375 -20.998132,6.22317 -27.01872,11.83496 -7.588405,7.07315 -11.963302,17.87693 -11.963302,29.54335 0,27.61653 27.252368,47.88722 52.055461,38.71957 z M 50.761088,392.64638 C 38.673197,384.3478 36.924522,367.06142 47.13957,356.84636 c 16.825016,-16.82499 45.598908,0.0817 39.253178,23.06406 -4.279175,15.49792 -22.251356,21.92179 -35.63166,12.73596 z M 289.54952,299.82919 c 3.26267,-3.26269 2.77948,-7.98529 -1.18405,-11.57222 -3.13206,-2.83448 -14.8113,-3.11667 -128.99847,-3.11667 H 33.812387 V 172.14894 59.157571 H 235.31365 436.81492 v 18.412866 c 0,19.716135 2.48465,26.783683 9.41595,26.783683 7.33506,0 9.41595,-6.866901 9.41595,-31.072624 0,-17.49905 -0.67185,-23.661037 -2.93156,-26.887221 L 449.78368,42.20887 H 235.58352 c -164.089234,0 -214.728852,0.528671 -216.460016,2.259826 -3.267536,3.267545 -3.267536,252.092944 0,255.360494 3.269329,3.26933 267.156686,3.26933 270.426016,0 z m 162.50207,-89.06298 c 11.60598,-3.72644 25.70325,-16.48133 31.1546,-28.18797 8.67271,-18.62445 4.79542,-42.46207 -9.30482,-57.20638 -24.64432,-25.770063 -67.5917,-19.85353 -83.47992,11.50037 -13.12691,25.9047 -3.87388,55.89952 21.50551,69.71272 11.78554,6.41448 27.92964,8.09682 40.12463,4.18126 z M 417.21691,190.6683 c -10.01813,-6.43237 -17.05992,-21.5031 -15.46936,-33.10741 1.65605,-12.08226 8.50701,-21.73336 19.051,-26.83763 23.56249,-11.40641 49.90245,4.78062 49.91087,30.67237 0.004,9.46918 -4.56393,20.67438 -10.68105,26.20614 -10.93929,9.89243 -30.04858,11.26121 -42.81146,3.06653 z"
       style="fill:#000000;stroke-width:1.88319" />
  </g>
</svg>
