<?xml version="1.0" encoding="UTF-8" standalone="no"?>
<svg
   xmlns:dc="http://purl.org/dc/elements/1.1/"
   xmlns:cc="http://creativecommons.org/ns#"
   xmlns:rdf="http://www.w3.org/1999/02/22-rdf-syntax-ns#"
   xmlns:svg="http://www.w3.org/2000/svg"
   xmlns="http://www.w3.org/2000/svg"
   xmlns:sodipodi="http://sodipodi.sourceforge.net/DTD/sodipodi-0.dtd"
   xmlns:inkscape="http://www.inkscape.org/namespaces/inkscape"
   sodipodi:docname="visAnalytics.svg"
   inkscape:version="1.0 (4035a4fb49, 2020-05-01)"
   id="svg8"
   version="1.1"
   viewBox="0 0 512 512"
   height="512"
   width="512">
  <defs
     id="defs2">
    <clipPath
       id="clipPath28"
       clipPathUnits="userSpaceOnUse">
      <rect
         y="472.88971"
         x="110.10663"
         height="86.873116"
         width="91.923882"
         id="rect30"
         style="fill:#000000" />
    </clipPath>
  </defs>
  <sodipodi:namedview
     inkscape:snap-global="false"
     inkscape:document-rotation="0"
     inkscape:pagecheckerboard="false"
     inkscape:window-maximized="1"
     inkscape:window-y="-6"
     inkscape:window-x="-6"
     inkscape:window-height="938"
     inkscape:window-width="1500"
     units="px"
     showgrid="true"
     inkscape:current-layer="layer1"
     inkscape:document-units="px"
     inkscape:cy="351.90559"
     inkscape:cx="307.1804"
     inkscape:zoom="0.49497475"
     inkscape:pageshadow="2"
     inkscape:pageopacity="0.0"
     borderopacity="1.0"
     bordercolor="#666666"
     pagecolor="#ffffff"
     id="base">
    <inkscape:grid
       spacingy="20"
       spacingx="20"
       id="grid1358"
       type="xygrid" />
  </sodipodi:namedview>
  <metadata
     id="metadata5">
    <rdf:RDF>
      <cc:Work
         rdf:about="">
        <dc:format>image/svg+xml</dc:format>
        <dc:type
           rdf:resource="http://purl.org/dc/dcmitype/StillImage" />
        <dc:title></dc:title>
      </cc:Work>
    </rdf:RDF>
  </metadata>
  <g
     transform="translate(0,-11.25001)"
     id="layer1"
     inkscape:groupmode="layer"
     inkscape:label="Layer 1">
    <g
       transform="matrix(1.2582782,0,0,1.2582782,-63.05173,-72.738917)"
       id="g21022">
      <path
         style="fill:#000000;fill-opacity:1;fill-rule:nonzero;stroke:none;stroke-width:7.86057"
         d="m 92.848565,172.65261 c 6.6936,-0.9826 13.418595,-1.93442 20.081595,-2.94774 1.5658,-0.24524 2.1182,-1.44314 2.3334,-2.917 0.6444,-4.36022 2.61,-8.10624 5.8036,-11.05396 1.6578,-1.53524 1.7498,-2.82488 0.8902,-4.69798 -6.3866,-13.97096 -12.7118,-27.94188 -19.0682,-41.91292 -0.5188,-1.13612 -0.7058,-2.88631 -2.702,-2.36432 -2.057395,0.52233 -4.636795,-0.49108 -5.618995,2.88629 -2.1188,7.36932 -4.6674,14.61576 -7.0314,21.92371 -2.9478,9.0274 -5.9262,18.0241 -8.8126,27.05156 -0.4892,1.50452 -1.2592,3.13196 1.1054,3.9917 4.4216,1.59672 7.8298,4.4523 10.102,8.5668 0.6448,1.16682 1.597,1.6888 2.917,1.47386 m 22.967395,6.54028 c -7.5838,1.13612 -14.554,2.18008 -21.524195,3.22406 -1.382,0.21458 -1.5658,1.25896 -1.8116,2.33364 -0.6752,3.10124 -1.6272,6.2025 -3.6848,8.62818 -1.7504,2.02662 -1.136,2.91706 0.7364,4.17598 8.4134,5.58836 16.765395,11.26892 25.148195,16.9187 10.2864,6.9087 20.5416,13.75608 30.7972,20.6955 1.6584,1.13606 2.61,1.25892 3.8692,-0.6446 1.2588,-1.93448 2.9784,-3.654 5.066,-4.82072 1.7504,-0.9826 2.0574,-2.02662 1.1672,-3.93032 -4.9438,-10.74692 -9.7952,-21.52452 -14.524,-32.33282 -0.9208,-2.11876 -1.9342,-3.07058 -4.3602,-2.91706 -8.137,0.49108 -14.6154,-2.51784 -18.945,-9.61078 -0.5836,-0.8905 -1.228,-1.8731 -1.9344,-1.71952 m 41.8206,-1.93448 c -2.272,-1.16682 -3.746,0.58306 -4.9434,3.37764 -0.6756,1.50456 -1.873,2.85556 -3.0396,4.11454 -0.8602,0.95182 -0.9214,1.81162 -0.401,2.91702 5.1892,11.45308 10.409,22.8448 15.4756,34.35932 1.228,2.82498 2.8558,4.54444 6.0488,4.7901 1.781,0.1532 3.47,0.9826 5.0052,1.99592 1.5964,1.04396 2.7938,0.5524 4.0838,-0.55242 12.1286,-10.2556 24.288,-20.5112 36.478,-30.67472 1.3514,-1.13612 1.566,-2.18008 0.46,-3.40828 -2.3954,-2.6714 -3.5008,-5.92616 -4.0838,-9.30378 -0.4304,-2.42574 -1.7198,-2.94772 -3.9306,-3.10124 -7.0008,-0.46044 -14.0322,-1.07474 -21.0332,-1.71952 -9.7026,-0.85974 -19.406,-1.7809 -30.1222,-2.79422 m 56.0068,-67.09144 c -1.0134,-0.0613 -1.9036,0.092 -2.7632,0.79836 -6.4178,5.40417 -12.8962,10.74692 -19.314,16.1204 -11.3918,9.45724 -22.691,19.00668 -34.0828,28.43328 -4.6674,3.83816 -4.6982,3.68464 -2.7332,9.45724 0.5836,1.6888 1.5046,2.51782 3.255,2.6714 6.387,0.52174 12.743,1.10534 19.1294,1.65804 11.3306,0.95194 22.661,1.78096 33.9602,2.91706 2.3646,0.24526 3.6846,-0.24524 4.8514,-2.21078 2.6718,-4.4216 6.7862,-6.90876 11.6376,-8.22912 3.6846,-0.95182 3.7766,-1.07468 3.1322,-4.9435 -0.86,-5.1893 -1.6584,-10.34782 -2.4566,-15.50633 -1.5046,-9.64148 -2.9784,-19.28308 -4.4828,-28.89384 -0.2476,-1.71952 -1.0748,-2.64069 -2.9172,-2.2108 -2.3952,0.58367 -4.8206,0.61415 -7.216,-0.0615 m -57.0202,-15.19919 c -11.4838,0 -22.9674,0.12267 -34.4206,-0.0613 -4.0838,-0.0615 -7.799,-0.0615 -9.4574,4.57509 -0.094,0.30716 -0.4304,0.58367 -0.7058,0.79832 -1.2892,1.07475 -1.1972,2.27223 -0.5836,3.654 6.172,13.57173 12.4358,27.05152 18.3314,40.74612 1.719,3.89954 3.5308,6.50958 8.2288,5.64978 0.5542,-0.12254 1.29,0.092 1.8116,0.39912 4.6982,2.64068 8.137,0.4911 11.2998,-2.82486 0.182,-0.2146 0.401,-0.39912 0.5838,-0.5524 10.255,-8.5668 20.5108,-17.1336 30.7358,-25.66975 6.1106,-5.09708 12.1594,-10.19417 18.3314,-15.19917 1.6578,-1.35108 1.6578,-2.57925 0.336,-4.02241 -1.1974,-1.28963 -2.0882,-2.82492 -2.518,-4.42159 -0.675,-2.54853 -2.1494,-3.13196 -4.5442,-3.10124 -12.4972,0.092 -24.9636,0.0295 -37.4302,0.0295 M 92.015565,66.7491 h 9.763995 c 0.9214,0.3378 1.873,0.67556 2.7638,1.07468 6.1412,2.70205 10.4702,7.12364 11.8828,13.78673 0.6138,2.76351 1.781,3.62328 4.5442,3.62328 24.2574,-0.092 48.4842,-0.092 72.711,0 2.7018,0 4.1144,-0.73692 5.3118,-3.34689 5.8954,-13.14196 22.8142,-15.99753 33.0392,-5.80336 6.0182,6.01832 8.4748,18.14696 0.9822,27.23573 -1.6578,2.02656 -1.719,3.99176 -1.3506,6.23328 2.61,16.58093 5.3424,33.13112 7.8298,49.74284 0.336,2.27224 1.2898,3.40828 3.1936,4.48302 8.382,4.63648 12.1592,14.92286 9.3036,24.04236 -2.6714,8.50536 -11.4838,15.19922 -21.8928,13.6946 -1.689,-0.24526 -3.1936,0.0631 -4.5448,1.19748 -12.8964,10.93122 -25.7314,21.86232 -38.7502,32.60926 -2.0576,1.68876 -2.1802,3.07058 -1.5966,5.46556 1.9038,7.58432 0.5838,14.40086 -5.2198,20.1428 -6.2332,6.14104 -13.5718,7.0315 -21.3096,4.48302 -7.4306,-2.48718 -11.7296,-8.16768 -12.927,-15.93618 -0.2476,-1.59666 -0.737,-2.67134 -2.0576,-3.56178 -21.5242,-14.4316 -43.0184,-28.89384 -64.542595,-43.38686 -1.3514,-0.92116 -2.7946,-1.32034 -4.3604,-0.98254 -3.4082,0.76794 -6.6324,0 -9.764,-1.16682 -6.7556,-2.45646 -10.5016,-7.64568 -12.6204,-14.2167 v -9.2423 c 1.9656,-6.6938 5.8648,-11.7909 12.4666,-14.3395 1.9962,-0.73652 2.825,-1.87298 3.408,-3.68466 5.589,-17.47135 11.208,-34.88136 16.8882,-52.32204 0.5836,-1.78097 0.4008,-2.82493 -1.1054,-4.11457 -8.628,-7.52283 -9.8566,-18.45399 -3.4694,-28.00339 2.7938,-4.1452 7.0314,-6.01824 11.4224,-7.70705"
         id="path469" />
      <g
         id="g914"
         transform="matrix(9.7829685,0,0,9.7829685,-16.69735,-205.87913)"
         style="fill:#000000">
        <path
           id="path471"
           d="m 27.710938,64.402344 h -2.359375 v 4.03125 h 2.359375 z m 11.90625,-3.394531 h -2.355469 v 7.417968 h 2.355469 z m -8.347657,7.417968 h 2.339844 v -9.941406 h -2.339844 z m 11.902344,0 h 2.320313 V 53.367188 h -2.320313 z m -20.496094,0.308594 c 0.519532,-0.121094 1.039063,-0.242187 1.625,-0.378906 0.01172,-0.171875 0.04687,-0.390625 0.04687,-0.613281 0.0039,-1.1875 0.01563,-2.378907 -0.0039,-3.570313 -0.0078,-0.558594 0.246094,-0.785156 0.789063,-0.777344 0.90625,0.01172 1.8125,0.01563 2.71875,0 0.601562,-0.01172 0.855468,0.265625 0.847656,0.859375 -0.01563,1.152344 -0.0039,2.304688 0,3.457032 0,0.222656 0.02734,0.441406 0.04687,0.722656 h 1.464844 c 0.01953,-0.296875 0.05078,-0.554688 0.05078,-0.8125 0.0039,-3.0625 0,-6.121094 0.0039,-9.183594 0,-0.84375 0.109375,-0.953125 0.9375,-0.953125 0.851563,-0.0039 1.703125,-0.0039 2.554688,0 0.769531,0.0039 0.851562,0.07813 0.851562,0.839844 0,3.101562 0,6.199219 0,9.296875 0,0.242187 0,0.484375 0,0.800781 h 1.585938 c 0.02345,-0.253906 0.0547,-0.488281 0.0547,-0.726562 0.0039,-2.269532 0.0039,-4.535157 0.0039,-6.800782 0.0039,-0.769531 0.125,-0.890625 0.886719,-0.898437 0.851563,-0.0039 1.699219,-0.0078 2.550781,0 0.738282,0.0078 0.902344,0.167969 0.90625,0.90625 0.0078,2.25 0,4.496094 0.0039,6.746094 0,0.238281 0.02734,0.480468 0.04297,0.785156 h 1.472657 c 0.01953,-0.3125 0.04687,-0.585938 0.04687,-0.859375 0.0039,-4.707031 0.0039,-9.410156 0.0039,-14.113281 0,-1.015625 0.0625,-1.078125 1.101562,-1.078125 0.753907,-0.0039 1.511719,-0.0039 2.265625,0 0.941407,0 0.976563,0.03906 0.976563,1.003906 0.0039,4.742187 0,9.480469 0.0039,14.222656 0,0.261719 0.02734,0.519531 0.04687,0.894531 0.375,0 0.722656,-0.05859 1.03125,0.01953 0.226563,0.05859 0.398438,0.304687 0.59375,0.46875 -0.199219,0.148437 -0.382812,0.324218 -0.601562,0.4375 -0.121094,0.0625 -0.296875,0.01172 -0.449219,0.01172 -7.820313,0 -15.640625,0.0039 -23.460938,-0.0039 -0.332031,0 -0.664062,-0.08984 -1,-0.136719 z m 0,0"
           style="fill:#000000;fill-opacity:1;fill-rule:nonzero;stroke:none" />
        <path
           id="path473"
           d="m 26.085938,57.023438 c 0.472656,-0.07031 0.777343,-0.292969 0.765625,-0.804688 -0.01172,-0.507812 -0.296875,-0.742187 -0.789063,-0.738281 -0.5,0.0078 -0.761719,0.261719 -0.757812,0.769531 0.0078,0.511719 0.328125,0.714844 0.78125,0.773438 m 7.125,-6.339844 c -0.01953,-0.480469 -0.253907,-0.742188 -0.734375,-0.75 -0.496094,-0.0039 -0.773438,0.25 -0.796875,0.742187 -0.02734,0.472657 0.328125,0.816407 0.804687,0.804688 0.53125,-0.0078 0.695313,-0.347656 0.726563,-0.796875 M 46,45.570313 c -0.08594,-0.441407 -0.300781,-0.75 -0.8125,-0.738282 -0.515625,0.01563 -0.738281,0.304688 -0.730469,0.796875 0.0078,0.5 0.273438,0.757813 0.773438,0.75 0.515625,-0.0078 0.710937,-0.332031 0.769531,-0.808593 m -7.171875,8.488281 C 39.308594,54.019534 39.59375,53.769531 39.625,53.285156 39.65234,52.867188 39.222656,52.4375 38.796875,52.46875 38.308594,52.5 38.039063,52.796875 38.042969,53.277344 c 0.0078,0.484375 0.304687,0.738281 0.785156,0.78125 M 45.691406,43.90625 c 1.605469,0.726563 1.488282,2.148438 0.742188,2.933594 -0.414063,0.4375 -0.847656,0.535156 -1.976563,0.4375 -1.359375,1.625 -2.746093,3.28125 -4.117187,4.929687 0.378906,1.539063 0,2.457032 -1.117188,2.753907 -0.996093,0.269531 -1.765625,-0.359375 -2.277343,-1.925782 -0.988282,-0.398437 -2.035157,-0.820312 -3.105469,-1.25 -0.671875,0.6875 -1.441406,0.828125 -2.359375,0.425782 -1.257813,1.082031 -2.519531,2.167968 -3.734375,3.214843 0.113281,1.472657 -0.179688,2.105469 -1.078125,2.445313 -0.707031,0.265625 -1.453125,0.05078 -1.929688,-0.550781 -0.496093,-0.625 -0.527343,-1.414063 -0.08203,-2.050782 0.539063,-0.769531 1.222656,-0.933593 2.421875,-0.542968 1.21875,-1.058594 2.46875,-2.140625 3.679688,-3.1875 0.0078,-1.640625 0.433593,-2.394532 1.394531,-2.542969 1.035156,-0.160156 1.722656,0.417969 2.203125,1.945312 0.976562,0.390625 2.019531,0.8125 3.007812,1.210938 1.207032,-0.726563 1.207032,-0.726563 2.191407,-0.53125 1.378906,-1.648438 2.777343,-3.320313 4.148437,-4.957031 -0.410156,-1.558594 -0.269531,-1.945313 0.96875,-2.757813 z m 0,0"
           style="fill:#000000;fill-opacity:1;fill-rule:nonzero;stroke:none" />
      </g>
    </g>
  </g>
</svg>
