<?xml version="1.0" encoding="UTF-8" standalone="no"?>
<svg
   xmlns:dc="http://purl.org/dc/elements/1.1/"
   xmlns:cc="http://creativecommons.org/ns#"
   xmlns:rdf="http://www.w3.org/1999/02/22-rdf-syntax-ns#"
   xmlns:svg="http://www.w3.org/2000/svg"
   xmlns="http://www.w3.org/2000/svg"
   xmlns:sodipodi="http://sodipodi.sourceforge.net/DTD/sodipodi-0.dtd"
   xmlns:inkscape="http://www.inkscape.org/namespaces/inkscape"
   sodipodi:docname="webApp.svg"
   inkscape:version="1.0 (4035a4fb49, 2020-05-01)"
   id="svg8"
   version="1.1"
   viewBox="0 0 512 512"
   height="512"
   width="512">
  <defs
     id="defs2">
    <marker
       inkscape:stockid="Arrow2Send"
       orient="auto"
       refY="0.0"
       refX="0.0"
       id="marker21407"
       style="overflow:visible;"
       inkscape:isstock="true">
      <path
         id="path21405"
         style="fill-rule:evenodd;stroke-width:0.625;stroke-linejoin:round;stroke:#000000;stroke-opacity:1;fill:#000000;fill-opacity:1"
         d="M 8.7185878,4.0337352 L -2.2072895,0.016013256 L 8.7185884,-4.0017078 C 6.9730900,-1.6296469 6.9831476,1.6157441 8.7185878,4.0337352 z "
         transform="scale(0.3) rotate(180) translate(-2.3,0)" />
    </marker>
    <marker
       inkscape:isstock="true"
       style="overflow:visible;"
       id="Arrow1Send"
       refX="0.0"
       refY="0.0"
       orient="auto"
       inkscape:stockid="Arrow1Send">
      <path
         transform="scale(0.2) rotate(180) translate(6,0)"
         style="fill-rule:evenodd;stroke:#000000;stroke-width:1pt;stroke-opacity:1;fill:#000000;fill-opacity:1"
         d="M 0.0,0.0 L 5.0,-5.0 L -12.5,0.0 L 5.0,5.0 L 0.0,0.0 z "
         id="path21092" />
    </marker>
    <clipPath
       id="clipPath28"
       clipPathUnits="userSpaceOnUse">
      <rect
         y="472.88971"
         x="110.10663"
         height="86.873116"
         width="91.923882"
         id="rect30"
         style="fill:#000000" />
    </clipPath>
  </defs>
  <sodipodi:namedview
     inkscape:snap-global="false"
     inkscape:document-rotation="0"
     inkscape:pagecheckerboard="false"
     inkscape:window-maximized="1"
     inkscape:window-y="-6"
     inkscape:window-x="-6"
     inkscape:window-height="938"
     inkscape:window-width="1500"
     units="px"
     showgrid="true"
     inkscape:current-layer="layer1"
     inkscape:document-units="px"
     inkscape:cy="466.59232"
     inkscape:cx="93.119641"
     inkscape:zoom="0.7"
     inkscape:pageshadow="2"
     inkscape:pageopacity="0.0"
     borderopacity="1.0"
     bordercolor="#666666"
     pagecolor="#ffffff"
     id="base">
    <inkscape:grid
       spacingy="20"
       spacingx="20"
       id="grid1358"
       type="xygrid" />
  </sodipodi:namedview>
  <metadata
     id="metadata5">
    <rdf:RDF>
      <cc:Work
         rdf:about="">
        <dc:format>image/svg+xml</dc:format>
        <dc:type
           rdf:resource="http://purl.org/dc/dcmitype/StillImage" />
        <dc:title></dc:title>
      </cc:Work>
    </rdf:RDF>
  </metadata>
  <g
     transform="translate(0,-11.25001)"
     id="layer1"
     inkscape:groupmode="layer"
     inkscape:label="Layer 1">
    <g
       transform="matrix(1.730155,0,0,1.730155,-124.90497,-355.64135)"
       id="g21717">
      <path
         id="path21628"
         style="fill:#000000"
         d="m 160.70898,222.39648 c -51.36259,0.0377 -63.994714,0.36863 -67.158199,1.25977 -6.48523,1.82692 -11.354852,6.75953 -12.976562,13.14648 -1.59944,6.29926 -0.973703,8.54175 2.273437,8.15039 2.04081,-0.24595 2.771054,-1.17064 3.839844,-4.85351 1.56647,-5.39781 4.92662,-8.85594 9.53125,-9.8125 1.84066,-0.38238 60.0457,-0.65482 129.3457,-0.60547 116.72603,0.0831 126.23927,0.21454 129.23438,1.79492 6.78734,3.58136 6.5238,0.38122 6.44726,78.47461 -0.038,38.73027 -0.3556,70.70698 -0.70703,71.0586 -0.35144,0.35161 -34.23356,0.86367 -75.29297,1.13867 -71.71553,0.48032 -74.66848,0.57425 -75.01171,2.35742 -0.19652,1.02092 0.15078,2.36367 0.77148,2.98437 1.18746,1.18746 22.86726,1.52398 105.05859,1.63282 25.0029,0.0331 43.11755,0.44723 44,1.00586 1.18968,0.75312 1.44705,2.85954 1.24024,10.17773 -0.28048,9.92547 -1.26739,12.50308 -5.95899,15.57813 -2.48839,1.63099 -8.04452,1.80135 -73.72265,2.26367 -68.18702,0.47998 -71.0458,0.57553 -71.38867,2.35742 -0.65714,3.41515 1.59838,4.12982 14.62695,4.64258 l 12.70312,0.5 0.53516,13 c 0.58776,14.29931 1.07511,15.79357 7.24414,22.20312 6.41673,6.66691 5.24653,7.19722 -16.61914,7.52539 -17.01723,0.25541 -18.1571,0.39213 -18.50586,2.20703 -0.79715,4.14831 1.80864,4.56446 28.4668,4.56446 21.31225,0 25.47448,-0.23621 26.76562,-1.52735 0.84092,-0.84092 1.30216,-2.12054 1.02539,-2.84179 -0.27677,-0.72126 -4.74012,-4.79637 -9.91797,-9.05664 -5.17785,-4.26027 -9.71792,-8.70514 -10.08984,-9.87696 -0.37192,-1.17182 -0.76594,-7.02533 -0.875,-13.00781 -0.14986,-8.22043 0.14646,-11.22067 1.20898,-12.2832 1.17184,-1.17183 10.05642,-1.40625 53.36524,-1.40625 44.63721,0 52.48386,-0.21729 55.66601,-1.54688 4.71903,-1.97173 7.92241,-4.97133 10.33594,-9.67773 1.8367,-3.58157 1.91259,-7.07782 1.94922,-90.06445 0.023,-52.07507 -0.33842,-87.32628 -0.91016,-88.83008 -1.50619,-3.96158 -6.24295,-9.01144 -10.09765,-10.76563 -3.19698,-1.45489 -16.11854,-1.63526 -131.04688,-1.81836 -26.81148,-0.0427 -48.2346,-0.0614 -65.35547,-0.0488 z m -79.386714,36.75196 -4.378907,3.88672 -4.378906,3.88476 -0.298828,97.86524 c -0.2095,68.3369 0.02817,98.99265 0.787109,101.60351 0.7282,2.5051 2.30542,4.56764 4.78125,6.25 l 3.695313,2.50977 51.517583,-0.0625 c 28.33483,-0.0349 52.45474,-0.44311 53.5996,-0.90625 4.30212,-1.74039 7.22066,-6.64193 7.89258,-13.25977 0.35016,-3.44876 0.49775,-47.89648 0.33008,-98.77148 -0.33643,-102.07418 0.0586,-96.1605 -6.70117,-100.71094 l -3.39844,-2.28906 h -51.72265 z m 68.115234,6.4375 c 34.43997,-0.0229 35.9506,0.65034 37.63477,5.08008 1.54391,4.0608 1.24,14.09399 -0.47852,15.8125 -1.25633,1.25633 -8.88172,1.47141 -52.1875,1.4746 -27.89431,0.002 -51.757837,-0.39158 -53.029297,-0.875 -2.11001,-0.80221 -2.3125,-1.48749 -2.3125,-7.83984 0,-8.3365 1.09924,-11.65855 4.193359,-12.67969 1.269002,-0.41881 23.456638,-0.83705 49.306638,-0.92968 6.36061,-0.0228 11.95305,-0.0397 16.87305,-0.043 z m -16.58008,29.28515 c 26.24105,-0.0461 52.61316,0.3686 53.72461,1.29102 1.28288,1.06469 1.48242,9.72058 1.48242,63.91016 0,47.66534 -0.28786,62.96754 -1.20703,63.88671 -0.92111,0.92111 -13.82743,1.14634 -54.25,0.94922 l -53.042967,-0.25976 -0.238281,-63.5 c -0.13141,-34.925 0.134234,-64.08426 0.589844,-64.79883 0.59003,-0.92541 26.700354,-1.43243 52.941404,-1.47852 z m 0.70703,137.27735 c 50.81218,0 52.4616,0.061 53.46485,1.93554 1.44072,2.69201 1.33233,27.32305 -0.13477,30.54297 -0.66124,1.45128 -2.29447,2.81669 -3.75,3.13477 -1.41821,0.30992 -3.03008,0.68091 -3.58008,0.82617 -0.55,0.14526 -22.52643,0.21843 -48.83789,0.16211 l -47.839841,-0.10156 -1.910157,-2.36133 c -1.677268,-2.07134 -1.912109,-4.06615 -1.912109,-16.31445 0,-7.70716 0.463436,-14.82041 1.035156,-15.88868 1.00325,-1.87459 2.652668,-1.93554 53.464841,-1.93554 z m 0,15.5 c -16.86466,0 -17.00156,0.0195 -17.31836,2.25 -0.22749,1.60172 0.35214,2.50304 2.01368,3.13476 3.02441,1.14987 27.60176,1.15758 30.625,0.01 1.65351,-0.62783 2.2283,-1.52894 2,-3.13672 -0.31814,-2.24056 -0.43819,-2.25781 -17.32032,-2.25781 z"
         transform="translate(0,11.25001)" />
      <path
         id="path21702"
         style="fill:#000000;stroke-width:0.528779"
         d="m 291.27221,272.41606 c -2.8921,0.0361 -5.79461,0.43402 -8.5366,1.37699 -2.43364,0.82646 -4.76543,1.9266 -7.04484,3.10748 -2.23629,1.16717 -4.27331,2.68841 -6.09494,4.42884 -3.04877,2.87998 -5.8923,6.05296 -7.89975,9.76042 -1.3232,2.41922 -2.34664,4.99433 -3.18264,7.61875 -0.79262,2.52845 -0.76015,5.20681 -0.79039,7.82814 0.005,2.90567 -0.0627,5.82143 0.23769,8.71586 0.28672,2.65919 1.16546,5.213 2.1848,7.67139 2.43673,5.76241 6.44369,10.83927 11.45703,14.57861 3.91914,2.93804 8.40919,5.09685 13.12238,6.41514 2.51793,0.59343 5.11848,0.71783 7.69638,0.75637 3.49807,0.013 7.01267,-0.19045 10.45099,-0.862 2.36615,-0.47485 4.61451,-1.40686 6.76844,-2.47606 6.23114,-3.16268 11.53433,-8.09654 15.22607,-14.02191 1.94075,-3.14551 3.44421,-6.58676 4.2363,-10.20425 0.5545,-2.74384 0.50019,-5.55931 0.52442,-8.34495 -0.0242,-2.52677 0.0475,-5.06591 -0.26555,-7.57869 -0.28933,-2.21868 -1.12994,-4.31198 -1.94325,-6.38018 -1.33012,-3.29885 -3.15351,-6.40428 -5.46172,-9.11497 -2.04262,-2.39632 -4.31263,-4.60617 -6.79767,-6.54202 -3.07,-2.39686 -6.59157,-4.22479 -10.34919,-5.26509 -4.39356,-1.23566 -8.9952,-1.50391 -13.53796,-1.46787 z m -0.0623,6.07709 c 0.13427,2.87841 0.0677,5.76094 0.084,8.64133 -1.90221,-0.006 -3.80469,0.0158 -5.70667,-0.0194 -0.66794,-0.0243 -1.41988,-0.0382 -2.10897,-0.1681 0.71412,-1.58339 1.68903,-3.03391 2.67718,-4.4569 0.85877,-1.20864 1.78079,-2.4013 2.98541,-3.28712 0.64197,-0.49057 1.31068,-0.9519 2.03009,-1.32221 0.013,0.20415 0.0259,0.4083 0.0389,0.61245 z m 5.10666,-0.54553 c 1.5509,0.86969 2.98702,1.99199 4.05281,3.42751 0.46934,0.59568 0.9067,1.21544 1.33479,1.84103 0.18353,0.27277 0.43132,0.64493 0.63146,0.96086 0.56121,0.89495 1.12067,1.79862 1.54132,2.76991 -0.92125,0.16192 -1.85288,0.15939 -2.76313,0.17984 -1.68439,0.0146 -3.36886,0.005 -5.05328,0.008 0.022,-3.08448 -0.0692,-6.17321 0.12451,-9.25379 0.0438,0.0223 0.0877,0.0446 0.13152,0.0669 z m -14.87796,1.96812 c -1.1228,1.6583 -2.02922,3.453 -2.80969,5.29423 -0.23584,0.47246 -0.48347,0.96004 -0.87673,1.32217 -1.73965,-0.17348 -3.46903,-0.50612 -5.13856,-1.02725 1.41143,-1.3229 3.03964,-2.3875 4.65828,-3.43635 1.05878,-0.67506 2.16283,-1.33127 3.2457,-1.89945 0.35791,-0.18709 0.71992,-0.36651 1.0891,-0.5304 -0.056,0.0924 -0.11207,0.1847 -0.1681,0.27705 z m 24.44381,-0.14086 c 2.43343,0.98281 4.63037,2.45554 6.73966,3.99782 0.73858,0.55674 1.4751,1.12346 2.13591,1.77188 -1.16643,0.33338 -2.38048,0.45482 -3.56583,0.70566 -0.48574,0.0592 -0.97105,0.25395 -1.46146,0.20252 -0.43847,-0.32275 -0.65307,-0.86108 -0.9269,-1.31707 -0.94602,-1.82257 -1.83948,-3.68176 -2.99142,-5.38727 l 0.0373,0.0141 z m 12.7005,10.21099 c 1.31357,1.5731 2.39939,3.33215 3.22173,5.20933 1.02363,2.26958 1.86405,4.6251 2.46782,7.04137 0.13851,0.58066 0.28409,1.25257 0.36581,1.87983 0.0792,0.60044 0.10901,1.20602 0.16416,1.80892 -3.6325,0.0586 -7.26743,0.25446 -10.89971,0.0903 -0.25183,-0.0175 -0.50424,-0.0304 -0.75487,-0.0615 -0.25847,-1.32293 -0.13185,-2.68105 -0.309,-4.01382 -0.34494,-3.17955 -0.86363,-6.34237 -1.57429,-9.46101 -0.09,-0.36505 -0.18291,-0.72947 -0.26771,-1.09573 1.71908,0.005 3.40899,-0.40155 5.05101,-0.87608 0.79706,-0.23612 1.59558,-0.46851 2.40353,-0.66479 0.0439,0.0477 0.0877,0.0955 0.13152,0.14319 z m -49.48606,-0.0124 c 2.22689,0.62703 4.53642,0.97811 6.78351,1.4178 0.2055,0.0513 0.54352,0.017 0.3791,0.32118 -0.33899,1.80205 -0.81071,3.57769 -1.07783,5.39359 -0.41297,2.44876 -0.67104,4.91943 -0.87631,7.39322 -0.043,0.47433 -0.086,0.94866 -0.12904,1.423 -3.67575,0.0631 -7.35246,0.24206 -11.0289,0.12762 -0.12075,-0.006 -0.41792,-0.0215 -0.60623,-0.0335 0.0839,-1.70549 0.49285,-3.3755 0.89743,-5.02843 0.53737,-2.10766 1.24917,-4.17525 2.22968,-6.11995 0.80874,-1.6332 1.68151,-3.26896 2.9158,-4.62478 0.14062,-0.1257 0.30372,-0.30801 0.51279,-0.26979 z m 36.30151,2.13776 c 0.1869,0.0113 0.45128,-0.0829 0.44909,0.19737 0.42305,1.31852 0.67473,2.68416 0.92446,4.04392 0.10255,0.60617 0.21875,1.29838 0.30938,1.94151 0.0907,0.62784 0.1735,1.24666 0.24053,1.84731 0.22851,2.00336 0.3133,4.01939 0.46722,6.02916 -3.62122,-0.025 -7.24778,0.0824 -10.86393,-0.15659 -0.24352,-0.0202 -0.39218,-0.0301 -0.63812,-0.0605 -0.12261,-1.19166 -0.15111,-2.39382 -0.18446,-3.56601 -0.0747,-3.28159 -0.0295,-6.56441 -0.042,-9.84656 3.11926,-0.15927 6.21334,-0.38569 9.33783,-0.42958 z m -21.35351,0.11284 c 2.42315,0.0351 4.8417,0.20527 7.26232,0.31051 -0.0871,4.46309 -0.17452,8.92616 -0.26225,13.38923 -3.79226,0.0867 -7.58452,0.1736 -11.37676,0.2607 -0.007,-1.41455 -0.0252,-2.83246 0.14788,-4.23939 0.11887,-1.16571 0.26943,-2.26891 0.44163,-3.43119 0.23596,-1.54296 0.50717,-3.15552 0.85574,-4.7066 0.12242,-0.47918 0.2086,-0.99556 0.4069,-1.43851 0.83023,-0.15609 1.68319,-0.13749 2.52454,-0.14475 z m 1.2864,18.82975 c 1.89963,0.0431 3.79925,0.0861 5.69888,0.12918 0,4.59927 0,9.19853 0,13.7978 -2.17949,0.10567 -4.35794,0.23554 -6.53858,0.31517 -0.75947,0.0118 -1.60523,0.0537 -2.39017,-0.0618 -0.19911,-0.0351 -0.46739,-0.063 -0.4938,-0.31656 -0.39374,-1.09706 -0.60488,-2.24905 -0.84214,-3.38747 -0.0881,-0.46005 -0.19305,-1.02095 -0.27793,-1.52137 -0.17248,-0.99097 -0.32285,-1.97494 -0.45382,-2.94796 -0.23576,-1.72719 -0.41259,-3.46742 -0.36475,-5.21294 0,-0.30801 0,-0.61603 0,-0.92405 1.88743,0.0433 3.77487,0.0866 5.66231,0.12996 z m 22.35662,1.83659 c -0.0566,2.19055 -0.35817,4.36769 -0.70362,6.52904 -0.31704,1.8051 -0.67386,3.61507 -1.27986,5.34821 -0.0456,0.21324 -0.18184,0.37521 -0.41126,0.38846 -0.92662,0.19243 -1.92957,0.1373 -2.83877,0.12974 -2.04412,-0.0722 -4.08568,-0.20187 -6.12846,-0.30351 0,-4.59978 0,-9.19956 0,-13.79935 3.78708,-0.0856 7.57415,-0.17193 11.36119,-0.25914 2.6e-4,0.65551 4e-4,1.31104 8e-4,1.96655 z m -39.38947,-1.68951 c 1.96007,0 3.92014,0 5.88021,0 0.22033,2.48728 0.43233,4.97731 0.82748,7.4444 0.2295,1.53225 0.5046,3.05733 0.82234,4.57361 0.10238,0.53185 0.21897,1.15742 0.30885,1.72876 0.0482,0.29608 0.0915,0.59318 0.12306,0.8915 -2.36886,0.65927 -4.81561,1.01101 -7.16427,1.74554 -0.60097,-0.45459 -0.9822,-1.13282 -1.40544,-1.74387 -0.73366,-1.16579 -1.47169,-2.33366 -2.10821,-3.55579 -1.07937,-2.31536 -1.84399,-4.76758 -2.4525,-7.24499 -0.31007,-1.23868 -0.48621,-2.50517 -0.56567,-3.77871 0.0935,-0.1399 0.4691,-0.021 0.67216,-0.0605 1.68733,0 3.37466,0 5.06199,0 z m 50.77557,0 c 1.90767,0 3.81534,0 5.72301,0 -0.0877,1.30939 -0.24399,2.6166 -0.57576,3.88885 -0.38983,1.59488 -0.90456,3.15693 -1.4834,4.69255 -0.0671,0.1643 -0.18549,0.46964 -0.27224,0.68795 -0.80402,2.00956 -1.75615,3.97235 -3.02153,5.73569 -0.35361,0.50964 -0.7092,1.01938 -1.1055,1.49706 -1.33144,-0.41032 -2.70775,-0.92384 -4.11583,-1.1658 -0.82743,-0.17451 -1.67116,-0.22746 -2.51302,-0.27234 -0.2015,-0.0502 -0.51429,-0.0204 -0.62335,-0.2288 -0.0882,-0.75648 0.19503,-1.49605 0.35926,-2.22526 0.51132,-2.26602 0.81264,-4.57409 1.10611,-6.87672 0.22528,-1.9098 0.42861,-3.82222 0.64437,-5.73318 1.9593,0 3.91859,0 5.87788,0 z m -27.89364,23.72552 c 0.0321,1.43661 0.0522,2.87632 -0.0529,4.31054 -1.24756,-0.67565 -2.34096,-1.6055 -3.35677,-2.58784 -1.30401,-1.43591 -2.38272,-3.06128 -3.39342,-4.71202 -0.2559,-0.42469 -0.49808,-0.858 -0.71914,-1.30178 2.45942,-0.18763 4.89786,-0.19805 7.37027,-0.27717 0.0634,0.22845 0.0238,0.56561 0.0477,0.83576 0.0348,1.24417 0.0695,2.48834 0.10427,3.73251 z m 8.83588,-4.42495 c 1.23155,0.008 2.46574,0.0308 3.69108,0.16343 -1.03387,1.86445 -2.24024,3.63228 -3.54418,5.31769 -0.89659,1.14588 -2.02033,2.11779 -3.27378,2.85437 -0.23668,0.11628 -0.46895,0.24178 -0.71051,0.34786 -0.18413,-2.8906 -0.0974,-5.789 -0.11829,-8.68335 1.31856,0 2.63712,0 3.95568,0 z m -22.19632,0.58133 c 0.22688,8e-4 0.4928,0.083 0.52242,0.34713 0.50384,1.27562 1.22007,2.45457 1.89572,3.64438 0.45401,0.78093 0.97469,1.60784 1.38268,2.36341 -2.21661,-1.01428 -4.31375,-2.27633 -6.3296,-3.64265 -0.82642,-0.57723 -1.65422,-1.16539 -2.37243,-1.87646 1.3538,-0.34806 2.72662,-0.64397 4.11523,-0.81226 0.2612,-0.0252 0.52375,-0.0414 0.78598,-0.0236 z m 32.25633,0.003 c 0.59795,0.0446 1.25544,0.16123 1.80235,0.26148 0.84198,0.16329 1.67961,0.34777 2.51831,0.52685 -0.33268,0.28494 -0.68777,0.60053 -0.98688,0.84929 -1.55419,1.26395 -3.22012,2.3954 -4.97582,3.36087 -0.40207,0.2154 -0.89536,0.47738 -1.34052,0.6959 -0.4427,0.21706 -0.88874,0.42794 -1.34355,0.61851 1.09243,-1.92426 2.32305,-3.78116 3.20704,-5.81562 0.058,-0.23188 0.16863,-0.50295 0.45732,-0.48596 0.21919,-0.0323 0.44132,-0.0206 0.66175,-0.0113 z" />
      <path
         d="m 130.65796,336.05567 c -2.8921,0.0361 -5.79461,0.43402 -8.5366,1.37699 -2.43364,0.82646 -4.76543,1.9266 -7.04484,3.10748 -2.23629,1.16717 -4.27331,2.68841 -6.09494,4.42884 -3.04877,2.87998 -5.8923,6.05296 -7.89975,9.76042 -1.323205,2.41922 -2.346645,4.99433 -3.182645,7.61875 -0.79262,2.52845 -0.76015,5.20681 -0.79039,7.82814 0.005,2.90567 -0.0627,5.82143 0.23769,8.71586 0.28672,2.65919 1.16546,5.213 2.1848,7.67139 2.436735,5.76241 6.443695,10.83927 11.457035,14.57861 3.91914,2.93804 8.40919,5.09685 13.12238,6.41514 2.51793,0.59343 5.11848,0.71783 7.69638,0.75637 3.49807,0.013 7.01267,-0.19045 10.45099,-0.862 2.36615,-0.47485 4.61451,-1.40686 6.76844,-2.47606 6.23114,-3.16268 11.53433,-8.09654 15.22607,-14.02191 1.94075,-3.14551 3.44421,-6.58676 4.2363,-10.20425 0.5545,-2.74384 0.50019,-5.55931 0.52442,-8.34495 -0.0242,-2.52677 0.0475,-5.06591 -0.26555,-7.57869 -0.28933,-2.21868 -1.12994,-4.31198 -1.94325,-6.38018 -1.33012,-3.29885 -3.15351,-6.40428 -5.46172,-9.11497 -2.04262,-2.39632 -4.31263,-4.60617 -6.79767,-6.54202 -3.07,-2.39686 -6.59157,-4.22479 -10.34919,-5.26509 -4.39356,-1.23566 -8.9952,-1.50391 -13.53796,-1.46787 z m -0.0623,6.07709 c 0.13427,2.87841 0.0677,5.76094 0.084,8.64133 -1.90221,-0.006 -3.80469,0.0158 -5.70667,-0.0194 -0.66794,-0.0243 -1.41988,-0.0382 -2.10897,-0.1681 0.71412,-1.58339 1.68903,-3.03391 2.67718,-4.4569 0.85877,-1.20864 1.78079,-2.4013 2.98541,-3.28712 0.64197,-0.49057 1.31068,-0.9519 2.03009,-1.32221 0.013,0.20415 0.0259,0.4083 0.0389,0.61245 z m 5.10666,-0.54553 c 1.5509,0.86969 2.98702,1.99199 4.05281,3.42751 0.46934,0.59568 0.9067,1.21544 1.33479,1.84103 0.18353,0.27277 0.43132,0.64493 0.63146,0.96086 0.56121,0.89495 1.12067,1.79862 1.54132,2.76991 -0.92125,0.16192 -1.85288,0.15939 -2.76313,0.17984 -1.68439,0.0146 -3.36886,0.005 -5.05328,0.008 0.022,-3.08448 -0.0692,-6.17321 0.12451,-9.25379 0.0438,0.0223 0.0877,0.0446 0.13152,0.0669 z m -14.87796,1.96812 c -1.1228,1.6583 -2.02922,3.453 -2.80969,5.29423 -0.23584,0.47246 -0.48347,0.96004 -0.87673,1.32217 -1.73965,-0.17348 -3.46903,-0.50612 -5.13856,-1.02725 1.41143,-1.3229 3.03964,-2.3875 4.65828,-3.43635 1.05878,-0.67506 2.16283,-1.33127 3.2457,-1.89945 0.35791,-0.18709 0.71992,-0.36651 1.0891,-0.5304 -0.056,0.0924 -0.11207,0.1847 -0.1681,0.27705 z m 24.44381,-0.14086 c 2.43343,0.98281 4.63037,2.45554 6.73966,3.99782 0.73858,0.55674 1.4751,1.12346 2.13591,1.77188 -1.16643,0.33338 -2.38048,0.45482 -3.56583,0.70566 -0.48574,0.0592 -0.97105,0.25395 -1.46146,0.20252 -0.43847,-0.32275 -0.65307,-0.86108 -0.9269,-1.31707 -0.94602,-1.82257 -1.83948,-3.68176 -2.99142,-5.38727 l 0.0373,0.0141 z m 12.7005,10.21099 c 1.31357,1.5731 2.39939,3.33215 3.22173,5.20933 1.02363,2.26958 1.86405,4.6251 2.46782,7.04137 0.13851,0.58066 0.28409,1.25257 0.36581,1.87983 0.0792,0.60044 0.10901,1.20602 0.16416,1.80892 -3.6325,0.0586 -7.26743,0.25446 -10.89971,0.0903 -0.25183,-0.0175 -0.50424,-0.0304 -0.75487,-0.0615 -0.25847,-1.32293 -0.13185,-2.68105 -0.309,-4.01382 -0.34494,-3.17955 -0.86363,-6.34237 -1.57429,-9.46101 -0.09,-0.36505 -0.18291,-0.72947 -0.26771,-1.09573 1.71908,0.005 3.40899,-0.40155 5.05101,-0.87608 0.79706,-0.23612 1.59558,-0.46851 2.40353,-0.66479 0.0439,0.0477 0.0877,0.0955 0.13152,0.14319 z m -49.48606,-0.0124 c 2.22689,0.62703 4.53642,0.97811 6.78351,1.4178 0.2055,0.0513 0.54352,0.017 0.3791,0.32118 -0.33899,1.80205 -0.81071,3.57769 -1.07783,5.39359 -0.41297,2.44876 -0.67104,4.91943 -0.87631,7.39322 -0.043,0.47433 -0.086,0.94866 -0.12904,1.423 -3.67575,0.0631 -7.35246,0.24206 -11.0289,0.12762 -0.12075,-0.006 -0.41792,-0.0215 -0.60623,-0.0335 0.0839,-1.70549 0.49285,-3.3755 0.89743,-5.02843 0.53737,-2.10766 1.24917,-4.17525 2.22968,-6.11995 0.80874,-1.6332 1.68151,-3.26896 2.9158,-4.62478 0.14062,-0.1257 0.30372,-0.30801 0.51279,-0.26979 z m 36.30151,2.13776 c 0.1869,0.0113 0.45128,-0.0829 0.44909,0.19737 0.42305,1.31852 0.67473,2.68416 0.92446,4.04392 0.10255,0.60617 0.21875,1.29838 0.30938,1.94151 0.0907,0.62784 0.1735,1.24666 0.24053,1.84731 0.22851,2.00336 0.3133,4.01939 0.46722,6.02916 -3.62122,-0.025 -7.24778,0.0824 -10.86393,-0.15659 -0.24352,-0.0202 -0.39218,-0.0301 -0.63812,-0.0605 -0.12261,-1.19166 -0.15111,-2.39382 -0.18446,-3.56601 -0.0747,-3.28159 -0.0295,-6.56441 -0.042,-9.84656 3.11926,-0.15927 6.21334,-0.38569 9.33783,-0.42958 z m -21.35351,0.11284 c 2.42315,0.0351 4.8417,0.20527 7.26232,0.31051 -0.0871,4.46309 -0.17452,8.92616 -0.26225,13.38923 -3.79226,0.0867 -7.58452,0.1736 -11.37676,0.2607 -0.007,-1.41455 -0.0252,-2.83246 0.14788,-4.23939 0.11887,-1.16571 0.26943,-2.26891 0.44163,-3.43119 0.23596,-1.54296 0.50717,-3.15552 0.85574,-4.7066 0.12242,-0.47918 0.2086,-0.99556 0.4069,-1.43851 0.83023,-0.15609 1.68319,-0.13749 2.52454,-0.14475 z m 1.2864,18.82975 c 1.89963,0.0431 3.79925,0.0861 5.69888,0.12918 0,4.59927 0,9.19853 0,13.7978 -2.17949,0.10567 -4.35794,0.23554 -6.53858,0.31517 -0.75947,0.0118 -1.60523,0.0537 -2.39017,-0.0618 -0.19911,-0.0351 -0.46739,-0.063 -0.4938,-0.31656 -0.39374,-1.09706 -0.60488,-2.24905 -0.84214,-3.38747 -0.0881,-0.46005 -0.19305,-1.02095 -0.27793,-1.52137 -0.17248,-0.99097 -0.32285,-1.97494 -0.45382,-2.94796 -0.23576,-1.72719 -0.41259,-3.46742 -0.36475,-5.21294 0,-0.30801 0,-0.61603 0,-0.92405 1.88743,0.0433 3.77487,0.0866 5.66231,0.12996 z m 22.35662,1.83659 c -0.0566,2.19055 -0.35817,4.36769 -0.70362,6.52904 -0.31704,1.8051 -0.67386,3.61507 -1.27986,5.34821 -0.0456,0.21324 -0.18184,0.37521 -0.41126,0.38846 -0.92662,0.19243 -1.92957,0.1373 -2.83877,0.12974 -2.04412,-0.0722 -4.08568,-0.20187 -6.12846,-0.30351 0,-4.59978 0,-9.19956 0,-13.79935 3.78708,-0.0856 7.57415,-0.17193 11.36119,-0.25914 2.6e-4,0.65551 4e-4,1.31104 8e-4,1.96655 z m -39.38947,-1.68951 c 1.96007,0 3.92014,0 5.88021,0 0.22033,2.48728 0.43233,4.97731 0.82748,7.4444 0.2295,1.53225 0.5046,3.05733 0.82234,4.57361 0.10238,0.53185 0.21897,1.15742 0.30885,1.72876 0.0482,0.29608 0.0915,0.59318 0.12306,0.8915 -2.36886,0.65927 -4.81561,1.01101 -7.16427,1.74554 -0.60097,-0.45459 -0.9822,-1.13282 -1.40544,-1.74387 -0.73366,-1.16579 -1.47169,-2.33366 -2.10821,-3.55579 -1.07937,-2.31536 -1.84399,-4.76758 -2.4525,-7.24499 -0.31007,-1.23868 -0.48621,-2.50517 -0.56567,-3.77871 0.0935,-0.1399 0.4691,-0.021 0.67216,-0.0605 1.68733,0 3.37466,0 5.06199,0 z m 50.77557,0 c 1.90767,0 3.81534,0 5.72301,0 -0.0877,1.30939 -0.24399,2.6166 -0.57576,3.88885 -0.38983,1.59488 -0.90456,3.15693 -1.4834,4.69255 -0.0671,0.1643 -0.18549,0.46964 -0.27224,0.68795 -0.80402,2.00956 -1.75615,3.97235 -3.02153,5.73569 -0.35361,0.50964 -0.7092,1.01938 -1.1055,1.49706 -1.33144,-0.41032 -2.70775,-0.92384 -4.11583,-1.1658 -0.82743,-0.17451 -1.67116,-0.22746 -2.51302,-0.27234 -0.2015,-0.0502 -0.51429,-0.0204 -0.62335,-0.2288 -0.0882,-0.75648 0.19503,-1.49605 0.35926,-2.22526 0.51132,-2.26602 0.81264,-4.57409 1.10611,-6.87672 0.22528,-1.9098 0.42861,-3.82222 0.64437,-5.73318 1.9593,0 3.91859,0 5.87788,0 z m -27.89364,23.72552 c 0.0321,1.43661 0.0522,2.87632 -0.0529,4.31054 -1.24756,-0.67565 -2.34096,-1.6055 -3.35677,-2.58784 -1.30401,-1.43591 -2.38272,-3.06128 -3.39342,-4.71202 -0.2559,-0.42469 -0.49808,-0.858 -0.71914,-1.30178 2.45942,-0.18763 4.89786,-0.19805 7.37027,-0.27717 0.0634,0.22845 0.0238,0.56561 0.0477,0.83576 0.0348,1.24417 0.0695,2.48834 0.10427,3.73251 z m 8.83588,-4.42495 c 1.23155,0.008 2.46574,0.0308 3.69108,0.16343 -1.03387,1.86445 -2.24024,3.63228 -3.54418,5.31769 -0.89659,1.14588 -2.02033,2.11779 -3.27378,2.85437 -0.23668,0.11628 -0.46895,0.24178 -0.71051,0.34786 -0.18413,-2.8906 -0.0974,-5.789 -0.11829,-8.68335 1.31856,0 2.63712,0 3.95568,0 z m -22.19632,0.58133 c 0.22688,8e-4 0.4928,0.083 0.52242,0.34713 0.50384,1.27562 1.22007,2.45457 1.89572,3.64438 0.45401,0.78093 0.97469,1.60784 1.38268,2.36341 -2.21661,-1.01428 -4.31375,-2.27633 -6.3296,-3.64265 -0.82642,-0.57723 -1.65422,-1.16539 -2.37243,-1.87646 1.3538,-0.34806 2.72662,-0.64397 4.11523,-0.81226 0.2612,-0.0252 0.52375,-0.0414 0.78598,-0.0236 z m 32.25633,0.003 c 0.59795,0.0446 1.25544,0.16123 1.80235,0.26148 0.84198,0.16329 1.67961,0.34777 2.51831,0.52685 -0.33268,0.28494 -0.68777,0.60053 -0.98688,0.84929 -1.55419,1.26395 -3.22012,2.3954 -4.97582,3.36087 -0.40207,0.2154 -0.89536,0.47738 -1.34052,0.6959 -0.4427,0.21706 -0.88874,0.42794 -1.34355,0.61851 1.09243,-1.92426 2.32305,-3.78116 3.20704,-5.81562 0.058,-0.23188 0.16863,-0.50295 0.45732,-0.48596 0.21919,-0.0323 0.44132,-0.0206 0.66175,-0.0113 z"
         style="fill:#000000;stroke-width:0.528779"
         id="path21712" />
    </g>
  </g>
</svg>
